<svg width="329" height="259" viewBox="0 0 329 259" fill="none" xmlns="http://www.w3.org/2000/svg">
<path d="M232.279 31.2322C257.531 57.3343 263.922 98.7215 263.985 140.226C264.047 181.731 257.844 223.295 232.592 239.403C207.278 255.452 162.978 245.987 129.768 235.64C96.4957 225.235 74.3769 213.888 50.253 197.78C26.129 181.731 0 160.979 0 140.168C0 119.356 26.129 98.604 50.253 72.5606C74.3769 46.4584 96.4957 15.1241 129.705 4.83608C162.852 -5.51072 206.965 5.18881 232.279 31.2322Z" fill="#6F86C4"/>
<path d="M269.015 201.044H150.912V114.067C150.912 112.057 151.714 110.13 153.141 108.708C154.567 107.287 156.503 106.489 158.52 106.489H269.015C270.403 106.489 271.777 106.761 273.058 107.29C274.34 107.819 275.505 108.595 276.486 109.573C277.466 110.55 278.244 111.711 278.774 112.988C279.305 114.266 279.577 115.634 279.576 117.017V190.508C279.578 191.89 279.307 193.26 278.777 194.538C278.247 195.817 277.469 196.978 276.489 197.957C275.508 198.935 274.343 199.712 273.06 200.241C271.778 200.771 270.403 201.044 269.015 201.044V201.044Z" fill="#D8ADDD"/>
<path opacity="0.08" d="M269.015 201.044H150.912V114.067C150.912 112.057 151.714 110.13 153.141 108.708C154.567 107.287 156.503 106.489 158.52 106.489H269.015C270.403 106.489 271.777 106.761 273.058 107.29C274.34 107.819 275.505 108.595 276.486 109.573C277.466 110.55 278.244 111.711 278.774 112.988C279.305 114.266 279.577 115.634 279.576 117.017V190.508C279.578 191.89 279.307 193.26 278.777 194.538C278.247 195.817 277.469 196.978 276.489 197.957C275.508 198.935 274.343 199.712 273.06 200.241C271.778 200.771 270.403 201.044 269.015 201.044V201.044Z" fill="#0A1B30"/>
<path opacity="0.08" d="M188.64 131.51C201.073 131.51 211.152 121.47 211.152 109.086C211.152 96.7013 201.073 86.6617 188.64 86.6617C176.207 86.6617 166.129 96.7013 166.129 109.086C166.129 121.47 176.207 131.51 188.64 131.51Z" fill="#0A1B30"/>
<path d="M188.64 131.51C201.073 131.51 211.152 121.47 211.152 109.086C211.152 96.7013 201.073 86.6617 188.64 86.6617C176.207 86.6617 166.129 96.7013 166.129 109.086C166.129 121.47 176.207 131.51 188.64 131.51Z" fill="#FFD200"/>
<g opacity="0.08">
<path opacity="0.08" d="M189.734 124.759C202.167 124.759 212.246 114.719 212.246 102.335C212.246 89.9503 202.167 79.9106 189.734 79.9106C177.301 79.9106 167.222 89.9503 167.222 102.335C167.222 114.719 177.301 124.759 189.734 124.759Z" fill="#0A1B30"/>
</g>
<path opacity="0.08" d="M188.64 131.51C201.073 131.51 211.152 121.47 211.152 109.086C211.152 96.7013 201.073 86.6617 188.64 86.6617C176.207 86.6617 166.129 96.7013 166.129 109.086C166.129 121.47 176.207 131.51 188.64 131.51Z" fill="#0A1B30"/>
<path d="M189.734 124.759C202.167 124.759 212.246 114.719 212.246 102.335C212.246 89.9503 202.167 79.9106 189.734 79.9106C177.301 79.9106 167.222 89.9503 167.222 102.335C167.222 114.719 177.301 124.759 189.734 124.759Z" fill="#FFD200"/>
<path d="M190.466 92.2985C191.1 92.2985 191.289 92.5197 191.289 93.1178V94.5351C192.407 94.6546 193.471 95.0744 194.368 95.7498C195.264 96.4252 195.96 97.3307 196.38 98.3695C196.709 99.0331 196.569 99.3936 195.829 99.7213L194.472 100.328C193.83 100.631 193.526 100.5 193.164 99.836C192.883 99.1501 192.386 98.5731 191.749 98.1908C191.112 97.8085 190.368 97.6412 189.627 97.714C187.267 97.714 186.189 98.4022 186.189 99.9753C186.245 100.455 186.465 100.901 186.813 101.237C187.161 101.573 187.615 101.778 188.098 101.819C188.756 101.965 189.424 102.066 190.096 102.122C191.353 102.181 192.595 102.424 193.781 102.843C194.379 103.031 194.937 103.328 195.426 103.719C195.917 104.234 196.3 104.842 196.552 105.506C196.805 106.17 196.923 106.877 196.898 107.587C196.898 110.593 194.875 112.633 191.305 113.158V114.592C191.305 115.222 191.108 115.411 190.483 115.411H188.953C188.32 115.411 188.13 115.19 188.13 114.592V113.182C186.89 113.098 185.703 112.65 184.718 111.894C183.733 111.139 182.995 110.111 182.595 108.938C182.536 108.815 182.506 108.68 182.507 108.543C182.508 108.407 182.541 108.272 182.602 108.15C182.663 108.028 182.751 107.921 182.859 107.837C182.968 107.754 183.094 107.696 183.228 107.668L184.585 107.169C185.276 106.923 185.581 107.087 185.885 107.775C186.494 109.326 187.741 110.099 189.627 110.094C192.177 110.094 193.444 109.274 193.444 107.636C193.467 107.26 193.362 106.887 193.148 106.576C192.933 106.266 192.62 106.036 192.259 105.923C191.374 105.616 190.449 105.44 189.512 105.399C188.241 105.32 186.989 105.043 185.803 104.58C185.204 104.378 184.646 104.07 184.158 103.67C183.661 103.184 183.272 102.599 183.014 101.955C182.757 101.31 182.636 100.619 182.661 99.9261C182.661 96.9439 184.544 94.9612 188.089 94.486V93.1587C188.089 92.5197 188.311 92.3394 188.912 92.3394L190.466 92.2985Z" fill="white"/>
<path opacity="0.08" d="M241.132 142.89C253.565 142.89 263.644 132.85 263.644 120.466C263.644 108.081 253.565 98.0417 241.132 98.0417C228.699 98.0417 218.62 108.081 218.62 120.466C218.62 132.85 228.699 142.89 241.132 142.89Z" fill="#0A1B30"/>
<path d="M241.132 142.89C253.565 142.89 263.644 132.85 263.644 120.466C263.644 108.081 253.565 98.0417 241.132 98.0417C228.699 98.0417 218.62 108.081 218.62 120.466C218.62 132.85 228.699 142.89 241.132 142.89Z" fill="#FFD200"/>
<g opacity="0.08">
<path opacity="0.08" d="M238.36 136.631C250.793 136.631 260.872 126.591 260.872 114.206C260.872 101.822 250.793 91.7823 238.36 91.7823C225.928 91.7823 215.849 101.822 215.849 114.206C215.849 126.591 225.928 136.631 238.36 136.631Z" fill="#0A1B30"/>
</g>
<path opacity="0.08" d="M241.132 142.89C253.565 142.89 263.644 132.85 263.644 120.466C263.644 108.081 253.565 98.0417 241.132 98.0417C228.699 98.0417 218.62 108.081 218.62 120.466C218.62 132.85 228.699 142.89 241.132 142.89Z" fill="#0A1B30"/>
<path d="M238.361 136.631C250.793 136.631 260.872 126.591 260.872 114.206C260.872 101.822 250.793 91.7823 238.361 91.7823C225.928 91.7823 215.849 101.822 215.849 114.206C215.849 126.591 225.928 136.631 238.361 136.631Z" fill="#FFD200"/>
<path d="M233.491 105.399C234.026 105.055 234.314 105.129 234.651 105.661L235.391 106.8C236.393 106.292 237.515 106.065 238.637 106.144C239.759 106.224 240.838 106.606 241.757 107.251C242.399 107.628 242.481 108.004 242.037 108.684L241.215 109.93C240.844 110.528 240.515 110.577 239.849 110.216C239.237 109.802 238.509 109.593 237.77 109.618C237.031 109.643 236.319 109.901 235.737 110.356C233.763 111.634 233.269 112.814 234.092 114.116C234.402 114.489 234.831 114.743 235.307 114.837C235.784 114.931 236.278 114.859 236.707 114.633C237.337 114.396 237.952 114.122 238.55 113.813C239.633 113.178 240.806 112.708 242.029 112.42C242.631 112.255 243.259 112.205 243.879 112.273C244.573 112.438 245.226 112.741 245.8 113.164C246.374 113.586 246.856 114.119 247.219 114.731C248.864 117.254 248.28 120.064 245.574 122.44L246.355 123.637C246.701 124.169 246.66 124.456 246.125 124.808L244.85 125.627C244.315 125.972 244.028 125.906 243.666 125.373L242.892 124.194C241.805 124.794 240.564 125.061 239.325 124.962C238.086 124.863 236.903 124.402 235.926 123.637C235.808 123.566 235.708 123.469 235.634 123.353C235.56 123.238 235.514 123.107 235.499 122.97C235.484 122.834 235.5 122.696 235.547 122.567C235.594 122.439 235.67 122.322 235.77 122.227L236.633 121.072C237.077 120.49 237.456 120.458 238.056 120.876C239.413 121.842 240.877 121.81 242.457 120.794C244.595 119.409 245.228 118.049 244.34 116.697C244.156 116.365 243.866 116.104 243.516 115.955C243.165 115.807 242.775 115.779 242.407 115.878C241.499 116.098 240.628 116.451 239.825 116.927C238.715 117.551 237.517 118.005 236.271 118.27C235.668 118.412 235.045 118.448 234.429 118.377C233.749 118.232 233.107 117.95 232.541 117.549C231.975 117.147 231.498 116.634 231.139 116.042C229.494 113.584 230.004 110.856 232.726 108.537L231.986 107.406C231.641 106.874 231.706 106.587 232.233 106.218L233.491 105.399Z" fill="white"/>
<path d="M150.912 114.067H260.083C263.021 114.067 265.839 115.23 267.917 117.3C269.995 119.369 271.162 122.176 271.162 125.103V197.578C271.162 200.505 269.995 203.312 267.917 205.382C265.839 207.451 263.021 208.614 260.083 208.614H150.912V114.067Z" fill="#D8ADDD"/>
<path d="M240.927 151.468H280.547V171.213H240.927C239.625 171.213 238.336 170.958 237.134 170.462C235.931 169.966 234.839 169.238 233.918 168.322C232.998 167.405 232.268 166.317 231.77 165.119C231.272 163.921 231.016 162.637 231.016 161.341V161.341C231.016 158.722 232.06 156.211 233.918 154.36C235.777 152.508 238.298 151.468 240.927 151.468Z" fill="#24285B"/>
<path d="M243.065 166.363C245.85 166.363 248.107 164.114 248.107 161.341C248.107 158.567 245.85 156.318 243.065 156.318C240.281 156.318 238.023 158.567 238.023 161.341C238.023 164.114 240.281 166.363 243.065 166.363Z" fill="#FFD200"/>
<path opacity="0.58" d="M135.03 200.585C135.03 200.585 128.672 198.856 127.29 192.957C127.29 192.957 137.16 190.975 137.423 201.15L135.03 200.585Z" fill="#D8ADDD"/>
<path opacity="0.73" d="M135.811 199.954C135.811 199.954 131.37 192.957 135.277 186.419C135.277 186.419 142.77 191.155 139.438 199.97L135.811 199.954Z" fill="#D8ADDD"/>
<path d="M136.954 199.962C136.954 199.962 139.307 192.589 146.397 191.171C146.397 191.171 147.729 195.972 141.807 199.979L136.954 199.962Z" fill="#D8ADDD"/>
<path d="M132.34 199.798L133.632 208.581L141.75 208.614L142.951 199.839L132.34 199.798Z" fill="#24285B"/>
<path d="M113.217 201.109C113.217 201.109 115.685 203.412 118.358 202.322C121.031 201.232 122.988 203.387 121.014 205.206C119.04 207.025 111.589 207.115 111.589 207.115L109.392 202.33L113.217 201.109Z" fill="#D8ADDD"/>
<path d="M71.648 200.036C71.648 200.036 70.4389 203.182 72.4705 205.239C74.5021 207.295 73.2272 209.909 70.8255 208.778C68.4238 207.647 65.5039 200.798 65.5039 200.798L69.09 196.947L71.648 200.036Z" fill="#D8ADDD"/>
<path d="M65.0269 140.899C65.0269 140.899 62.4195 151.165 66.9515 156.22C71.4835 161.275 78.4665 185.207 66.9515 197.185L71.4917 201.437C71.4917 201.437 91.3797 191.335 85.7045 154.901L99.9008 140.907L65.0269 140.899Z" fill="#24285B"/>
<path d="M99.9009 82.4259C99.9009 82.4259 113.949 85.9898 114.048 97.5747C114.147 109.16 107.822 129.437 116.853 131.092C125.884 132.747 131.287 107.709 131.287 107.709L137.728 110.298C137.728 110.298 130.876 153.066 107.196 146.012C83.5167 138.957 99.9009 82.4259 99.9009 82.4259Z" fill="#D8ADDD"/>
<path opacity="0.44" d="M99.9009 82.4259C99.9009 82.4259 113.949 85.9898 114.048 97.5747C114.147 109.16 107.822 129.437 116.853 131.092C125.884 132.747 131.287 107.709 131.287 107.709L137.728 110.298C137.728 110.298 130.876 153.066 107.196 146.012C83.5167 138.957 99.9009 82.4259 99.9009 82.4259Z" fill="white"/>
<path d="M87.2672 63.4018L82.9902 78.4277L91.4702 80.181L91.1823 68.547L87.2672 63.4018Z" fill="#F4A28C"/>
<path opacity="0.31" d="M91.3551 71.0868C90.319 70.7025 89.4184 70.0247 88.7642 69.1369C88.7642 69.1369 88.5503 71.9881 91.3469 75.1669L91.3551 71.0868Z" fill="#CE8172"/>
<path d="M82.9903 78.4277L88.0075 79.4682C88.0075 79.4682 111.038 81.9261 111.967 94.8792C112.896 107.832 99.8926 140.899 99.8926 140.899H65.0269C65.0269 140.899 37.0783 75.0031 82.9903 78.4277Z" fill="#D8ADDD"/>
<path opacity="0.09" d="M79.9799 90.4387C79.9799 90.4387 82.7929 98.5169 75.415 103.793C68.0372 109.069 71.6398 128.946 79.7085 132.125C87.7772 135.303 74.6666 142.194 69.09 139.383C63.5135 136.573 62.6992 134.681 62.6992 134.681C62.6992 134.681 57.5092 119.737 56.9417 110.2C56.3742 100.663 79.9799 90.4387 79.9799 90.4387Z" fill="#0A1B30"/>
<path d="M79.9799 90.4386C79.9799 83.3189 72.7419 78.4605 65.9481 80.6808C60.0425 82.5898 52.8374 86.1701 48.4617 92.7081C40.0558 105.276 20.8339 142.054 69.6246 143.431L71.0558 138.023C71.0558 138.023 41.7666 129.953 54.6963 112.887C64.7554 99.6066 80.0046 100.5 79.9799 90.4386Z" fill="#D8ADDD"/>
<path opacity="0.44" d="M79.9799 90.4386C79.9799 83.3189 72.7419 78.4605 65.9481 80.6808C60.0425 82.5898 52.8374 86.1701 48.4617 92.7081C40.0558 105.276 20.8339 142.054 69.6246 143.431L71.0558 138.023C71.0558 138.023 41.7666 129.953 54.6963 112.887C64.7554 99.6066 80.0046 100.5 79.9799 90.4386Z" fill="white"/>
<path d="M132.793 108.316C132.793 108.316 133.163 102.122 135.655 100.369C138.147 98.6152 137.728 103.056 137.728 103.056C137.728 103.056 140.195 100.155 142.301 101.507C144.406 102.859 137.728 110.298 137.728 110.298L132.793 108.316Z" fill="#F4A28C"/>
<path d="M96.0515 63.8361C96.0515 63.8361 95.6238 68.588 94.2832 71.5539C94.1536 71.842 93.9678 72.1016 93.7367 72.3176C93.5056 72.5336 93.2337 72.7018 92.9368 72.8123C92.6399 72.9228 92.3239 72.9735 92.0072 72.9614C91.6905 72.9493 91.3794 72.8747 91.0919 72.7418C90.1382 72.3768 89.3109 71.7447 88.7097 70.922C88.1084 70.0992 87.7589 69.1208 87.7032 68.1046L87.0205 63.7541C86.9773 62.8688 87.2113 61.992 87.6902 61.2449C88.169 60.4978 88.8691 59.9174 89.6936 59.5839C92.6875 58.1502 96.4546 60.944 96.0515 63.8361Z" fill="#F4A28C"/>
<path d="M95.6321 66.8183L96.6191 68.8584C96.6743 68.9739 96.6995 69.1015 96.6922 69.2292C96.685 69.357 96.6455 69.4809 96.5775 69.5895C96.5094 69.6981 96.415 69.7879 96.303 69.8505C96.191 69.9132 96.0649 69.9467 95.9364 69.948H94.0775L95.6321 66.8183Z" fill="#F4A28C"/>
<path d="M99.9008 140.899L114.484 201.429L107.196 202.494C107.196 202.494 92.6135 161.005 82.9902 152.517L99.9008 140.899Z" fill="#24285B"/>
<path d="M70.8584 138.777C70.8584 138.777 76.0648 137.958 77.8003 141.538C79.5358 145.119 69.6246 143.439 69.6246 143.439L70.8584 138.777Z" fill="#F4A28C"/>
<path d="M85.8443 68.3914L88.7642 67.6868L90.5408 66.8183C90.5408 66.8183 91.8157 66.7364 91.3633 63.6476C91.3633 63.6476 97.6307 65.8024 98.4532 62.0992C99.358 58.06 94.678 56.2658 91.3633 56.6099C90.3973 56.7257 89.4817 57.1032 88.716 57.7012C87.9503 58.2993 87.3639 59.0949 87.0205 60.0018C87.0205 60.0018 81.8058 59.1743 85.8443 68.3914Z" fill="#24285B"/>
<path d="M90.327 66.9658C90.327 66.9658 90.6148 65.1552 89.2248 65.0568C87.8348 64.9585 87.4071 67.5721 89.2248 68.1374L90.327 66.9658Z" fill="#F4A28C"/>
<path opacity="0.08" d="M142.358 105.284C154.791 105.284 164.87 95.2447 164.87 82.8602C164.87 70.4756 154.791 60.436 142.358 60.436C129.925 60.436 119.846 70.4756 119.846 82.8602C119.846 95.2447 129.925 105.284 142.358 105.284Z" fill="#0A1B30"/>
<path d="M142.358 105.284C154.791 105.284 164.87 95.2447 164.87 82.8602C164.87 70.4756 154.791 60.436 142.358 60.436C129.925 60.436 119.846 70.4756 119.846 82.8602C119.846 95.2447 129.925 105.284 142.358 105.284Z" fill="#FFD200"/>
<g opacity="0.08">
<path opacity="0.08" d="M143.46 98.5333C155.893 98.5333 165.972 88.4937 165.972 76.1091C165.972 63.7246 155.893 53.685 143.46 53.685C131.028 53.685 120.949 63.7246 120.949 76.1091C120.949 88.4937 131.028 98.5333 143.46 98.5333Z" fill="#0A1B30"/>
</g>
<path opacity="0.08" d="M142.358 105.284C154.791 105.284 164.87 95.2447 164.87 82.8602C164.87 70.4756 154.791 60.436 142.358 60.436C129.925 60.436 119.846 70.4756 119.846 82.8602C119.846 95.2447 129.925 105.284 142.358 105.284Z" fill="#0A1B30"/>
<path d="M143.46 98.5333C155.893 98.5333 165.972 88.4937 165.972 76.1091C165.972 63.7246 155.893 53.685 143.46 53.685C131.028 53.685 120.949 63.7246 120.949 76.1091C120.949 88.4937 131.028 98.5333 143.46 98.5333Z" fill="#FFD200"/>
<path d="M144.184 66.0728C144.818 66.0728 145.007 66.294 145.007 66.8921V68.3176C146.125 68.4337 147.189 68.8513 148.086 69.5255C148.984 70.1997 149.679 71.105 150.098 72.1437C150.435 72.8074 150.295 73.1679 149.547 73.4956L148.19 74.1019C147.548 74.405 147.244 74.2739 146.89 73.6103C146.606 72.9246 146.108 72.348 145.47 71.9659C144.831 71.5838 144.087 71.4164 143.345 71.4883C140.993 71.4883 139.907 72.1765 139.907 73.7496C139.963 74.2304 140.184 74.6771 140.534 75.0133C140.883 75.3495 141.339 75.5544 141.824 75.593C142.479 75.7396 143.144 75.8409 143.814 75.8961C145.071 75.9587 146.312 76.2016 147.499 76.6171C148.097 76.8048 148.655 77.1021 149.144 77.4938C149.636 78.0077 150.02 78.6147 150.273 79.2789C150.526 79.9431 150.643 80.651 150.616 81.3608C150.616 84.3677 148.593 86.4077 145.023 86.9321V88.3658C145.023 88.9967 144.826 89.1851 144.201 89.1851H142.679C142.038 89.1851 141.857 88.9639 141.857 88.3658V86.9239C140.617 86.8392 139.429 86.3912 138.444 85.636C137.459 84.8808 136.721 83.8523 136.321 82.6799C136.262 82.556 136.232 82.4204 136.234 82.2833C136.236 82.1462 136.269 82.0113 136.331 81.8889C136.392 81.7664 136.482 81.6596 136.591 81.5767C136.701 81.4937 136.828 81.4367 136.963 81.41L138.32 80.9102C139.011 80.6644 139.315 80.8283 139.619 81.5165C140.228 83.0622 141.473 83.8351 143.354 83.8351C145.903 83.8351 147.178 83.0158 147.178 81.3772C147.202 80.9997 147.097 80.6253 146.881 80.3145C146.664 80.0037 146.349 79.7749 145.986 79.6649C145.103 79.3584 144.18 79.1818 143.247 79.1405C141.975 79.0579 140.724 78.7816 139.537 78.3212C138.939 78.1147 138.382 77.804 137.892 77.4036C137.397 76.9162 137.009 76.3318 136.753 75.6872C136.497 75.0427 136.378 74.3522 136.403 73.6594C136.403 70.6772 138.287 68.6945 141.824 68.2275V66.933C141.824 66.294 142.046 66.1137 142.646 66.1137L144.184 66.0728Z" fill="white"/>
</svg>
