<svg width="310" height="259" viewBox="0 0 310 279" fill="none" xmlns="http://www.w3.org/2000/svg">
<path d="M88.1047 244.11C59.7247 221.086 48.1049 180.34 42.7483 138.677C37.3917 97.0144 38.2436 54.503 61.2392 35.1478C84.3045 15.8437 129.459 19.7628 163.724 25.9652C198.058 32.2186 221.448 40.8222 247.434 53.954C273.413 67.0268 278.848 78.7514 281.502 99.6456C284.157 120.54 284.017 150.486 263.407 179.674C242.805 208.921 224.86 243.168 193.228 257.683C161.665 272.249 116.539 267.067 88.1047 244.11Z" fill="#6F86C4"/>
<path d="M119.451 65.4766C119.451 65.4766 117.18 70.2966 116.792 73.9059C116.756 74.2566 116.789 74.6112 116.89 74.9491C116.991 75.287 117.157 75.6017 117.38 75.875C117.602 76.1484 117.876 76.375 118.187 76.5419C118.497 76.7088 118.837 76.8127 119.187 76.8476C121.008 77.0183 123.527 76.7156 125.062 74.2784L128.162 70.4596C128.705 69.6315 128.978 68.6545 128.941 67.6643C128.905 66.674 128.562 65.7195 127.96 64.9333C125.891 61.8829 120.691 62.465 119.451 65.4766Z" fill="#F4A28C"/>
<path d="M126.991 71.3523L128.247 88.7774L118.606 88.7852L121.489 76.4207L126.991 71.3523Z" fill="#F4A28C"/>
<path d="M120.613 66.1441C122.135 66.7746 123.724 67.2277 125.348 67.4947C124.652 68.0086 124.121 68.7152 123.821 69.5275C123.521 70.3398 123.465 71.2223 123.659 72.0663C123.833 72.8883 124.287 73.6241 124.943 74.1479C125.599 74.6718 126.416 74.9511 127.255 74.9382L129.58 68.4804C129.935 67.5657 130.036 66.5718 129.872 65.6042C129.708 64.6366 129.286 63.7316 128.65 62.9851C128.105 62.3362 127.52 61.7218 126.898 61.1455C125.348 59.7174 122.163 59.9502 120.97 58.0874C120.848 57.902 120.68 57.7513 120.483 57.6498C120.286 57.5483 120.067 57.4995 119.845 57.5081C119.624 57.5167 119.408 57.5824 119.22 57.6988C119.031 57.8153 118.876 57.9785 118.769 58.1728C117.753 60.0201 116.971 63.2257 119.218 65.267C119.631 65.6351 120.103 65.9315 120.613 66.1441Z" fill="#0A1B30"/>
<path d="M123.178 71.7171C123.178 71.7171 123.953 69.8077 125.317 70.4907C126.681 71.1737 125.643 73.9447 123.582 73.479L123.178 71.7171Z" fill="#F4A28C"/>
<path d="M118.18 68.5891L116.072 70.025C115.95 70.1019 115.85 70.2085 115.78 70.3347C115.711 70.4609 115.674 70.6027 115.674 70.7468C115.674 70.8909 115.711 71.0327 115.78 71.1589C115.85 71.2851 115.95 71.3917 116.072 71.4687L117.846 72.532L118.18 68.5891Z" fill="#F4A28C"/>
<path opacity="0.31" d="M121.412 76.77C122.575 76.5619 123.659 76.0414 124.55 75.2642C124.55 75.2642 125.17 79.0442 120.582 80.3093L121.412 76.77Z" fill="#CE8172"/>
<path d="M192.758 88.9327C207.246 88.9327 218.992 77.1696 218.992 62.6591C218.992 48.1486 207.246 36.3855 192.758 36.3855C178.269 36.3855 166.524 48.1486 166.524 62.6591C166.524 77.1696 178.269 88.9327 192.758 88.9327Z" fill="#0A1B30"/>
<path d="M173.096 69.0237L155.031 82.0713L180.118 77.5617L173.096 69.0237Z" fill="#0A1B30"/>
<path d="M65.6658 91.4009C65.6658 91.4009 43.7255 133.928 61.0158 142.466C78.306 151.003 113.824 109.222 113.824 109.222L103.455 88.2186C103.455 88.2186 79.9723 101.848 69.254 124.613L71.0598 89.5846L65.6658 91.4009Z" fill="#D8ADDD"/>
<path opacity="0.2" d="M65.6658 91.4009C65.6658 91.4009 43.7255 133.928 61.0158 142.466C78.306 151.003 113.824 109.222 113.824 109.222L103.455 88.2186C103.455 88.2186 79.9723 101.848 69.254 124.613L71.0598 89.5846L65.6658 91.4009Z" fill="white"/>
<path d="M242.482 119.98H146.886C142.713 119.98 139.329 123.368 139.329 127.547V193.359C139.329 197.539 142.713 200.927 146.886 200.927H242.482C246.655 200.927 250.038 197.539 250.038 193.359V127.547C250.038 123.368 246.655 119.98 242.482 119.98Z" fill="#C9C9C9"/>
<path d="M60.3183 87.6442C74.0535 87.6442 85.188 76.4927 85.188 62.7367C85.188 48.9807 74.0535 37.8292 60.3183 37.8292C46.5831 37.8292 35.4485 48.9807 35.4485 62.7367C35.4485 76.4927 46.5831 87.6442 60.3183 87.6442Z" fill="#D36820"/>
<path d="M60.3183 87.6442C74.0535 87.6442 85.188 76.4927 85.188 62.7367C85.188 48.9807 74.0535 37.8292 60.3183 37.8292C46.5831 37.8292 35.4485 48.9807 35.4485 62.7367C35.4485 76.4927 46.5831 87.6442 60.3183 87.6442Z" fill="#FFD200"/>
<path opacity="0.08" d="M60.3183 87.6442C74.0535 87.6442 85.188 76.4927 85.188 62.7367C85.188 48.9807 74.0535 37.8292 60.3183 37.8292C46.5831 37.8292 35.4485 48.9807 35.4485 62.7367C35.4485 76.4927 46.5831 87.6442 60.3183 87.6442Z" fill="black"/>
<path d="M67.394 84.9121C81.1292 84.9121 92.2638 73.7606 92.2638 60.0046C92.2638 46.2485 81.1292 35.0971 67.394 35.0971C53.6588 35.0971 42.5242 46.2485 42.5242 60.0046C42.5242 73.7606 53.6588 84.9121 67.394 84.9121Z" fill="#FFD200"/>
<path opacity="0.33" d="M67.394 77.0184C76.7762 77.0184 84.382 69.401 84.382 60.0046C84.382 50.6081 76.7762 42.9908 67.394 42.9908C58.0118 42.9908 50.406 50.6081 50.406 60.0046C50.406 69.401 58.0118 77.0184 67.394 77.0184Z" fill="white"/>
<path d="M239.599 129.193H149.769C144.003 129.193 139.329 133.874 139.329 139.648V211.413C139.329 217.188 144.003 221.868 149.769 221.868H239.599C245.364 221.868 250.038 217.188 250.038 211.413V139.648C250.038 133.874 245.364 129.193 239.599 129.193Z" fill="#E6E6E6"/>
<path opacity="0.08" d="M182.233 119.98H200.834C200.834 119.98 211.071 167.722 178.165 179.272C145.258 190.821 165.765 221.868 165.765 221.868H147.862L142.088 214.588V192.723L137.648 170.928L147.839 130.186L158.766 121.066L182.233 119.98Z" fill="black"/>
<path d="M247.752 162.413H218.868C212.837 162.413 207.948 167.31 207.948 173.35V178.271C207.948 184.311 212.837 189.207 218.868 189.207H247.752C253.783 189.207 258.672 184.311 258.672 178.271V173.35C258.672 167.31 253.783 162.413 247.752 162.413Z" fill="#A5A5A5"/>
<path d="M220.472 181.585C223.716 181.585 226.347 178.951 226.347 175.701C226.347 172.452 223.716 169.818 220.472 169.818C217.228 169.818 214.598 172.452 214.598 175.701C214.598 178.951 217.228 181.585 220.472 181.585Z" fill="#E6E6E6"/>
<path d="M98.9985 91.8588C100.146 90.4042 101.583 89.205 103.219 88.3376C104.855 87.4703 106.654 86.954 108.5 86.8215C116.49 86.2548 137.764 88.9637 150.265 96.6789C167.78 107.483 170.725 121.315 142.081 166.496L111.856 164.719C111.856 164.719 78.2207 118.101 98.9985 91.8588Z" fill="#D8ADDD"/>
<path opacity="0.08" d="M135.516 102.904C135.516 102.904 129.053 118.148 137.648 131.622C146.242 145.097 122.582 165.37 122.582 165.37L141.05 166.496L144.599 162.429C144.599 162.429 158.146 140.129 160.874 130.606C163.602 121.082 147.482 115.959 147.482 115.959L135.516 102.904Z" fill="black"/>
<path d="M136.059 113.041C130.789 103.672 140.213 92.8601 150.249 96.6789C166.424 102.834 190.487 116.487 186.589 142.473C180.8 181.104 151.551 169.189 151.551 169.189L151.241 161.482C151.241 161.482 169.896 161.909 170.082 142.854C170.221 128.797 144.003 127.167 136.059 113.041Z" fill="#D8ADDD"/>
<path opacity="0.2" d="M136.059 113.041C130.789 103.672 140.213 92.8601 150.249 96.6789C166.424 102.834 190.487 116.487 186.589 142.473C180.8 181.104 151.551 169.189 151.551 169.189L151.241 161.482C151.241 161.482 169.896 161.909 170.082 142.854C170.221 128.797 144.003 127.167 136.059 113.041Z" fill="white"/>
<path d="M111.817 164.719L116.94 217.498H124.581L126.131 186.389C126.257 183.857 126.935 181.383 128.117 179.141C129.299 176.899 130.957 174.944 132.974 173.412L142.096 166.496L111.817 164.719Z" fill="#0A1B30"/>
<path d="M142.065 166.496L148.691 217.499L140.562 218.95L128.937 176.454L120.582 170.92L142.065 166.496Z" fill="#0A1B30"/>
<path d="M71.0597 89.5846C71.0597 89.5846 69.5562 84.5162 60.9847 84.7723C52.4132 85.0285 56.854 96.2054 71.0597 89.5846Z" fill="#F4A28C"/>
<path d="M151.241 161.482C151.241 161.482 141.019 161.078 140.693 166.783C140.368 172.488 143.654 174.39 147.529 174.118C151.404 173.846 146.242 170.703 151.241 167.808V161.482Z" fill="#F4A28C"/>
<path d="M119.272 217.499C119.272 217.499 118.451 220.937 115.498 221.519C112.545 222.101 112.088 225.105 114.855 225.571C117.622 226.036 124.155 221.814 124.155 221.814L123.481 217.53L119.272 217.499Z" fill="#D8ADDD"/>
<path d="M146.18 217.925C146.18 217.925 147.669 221.131 150.676 221.115C153.683 221.1 154.737 223.956 152.117 224.958C149.498 225.959 142.259 223.126 142.259 223.126L142.065 218.795L146.18 217.925Z" fill="#D8ADDD"/>
<path d="M193.75 47.1977C194.525 47.1977 194.765 47.4693 194.765 48.2455V49.9065C197.865 50.3489 199.663 51.9013 200.965 54.6101C201.368 55.3863 201.198 55.8598 200.283 56.2634L198.633 57.0396C197.858 57.4121 197.486 57.2414 197.083 56.4342C196.737 55.5918 196.13 54.8834 195.351 54.4136C194.572 53.9439 193.663 53.7379 192.758 53.8262C189.891 53.8262 188.573 54.6722 188.573 56.5972C188.573 57.8546 189.72 58.6307 190.898 58.8636C191.7 59.0424 192.513 59.1669 193.332 59.2362C194.865 59.3132 196.378 59.6112 197.827 60.121C198.553 60.3511 199.229 60.7172 199.818 61.1999C200.417 61.8297 200.884 62.573 201.191 63.3861C201.498 64.1992 201.64 65.0657 201.609 65.9346C201.609 69.6214 199.144 72.144 194.789 72.7727V74.5268C194.789 75.303 194.548 75.5747 193.773 75.5747H191.913C191.138 75.5747 190.867 75.303 190.867 74.5268V72.7727C187.488 72.3303 185.225 70.6071 184.109 67.5645C184.039 67.4132 184.004 67.2481 184.006 67.0814C184.009 66.9146 184.049 66.7506 184.123 66.6015C184.198 66.4523 184.305 66.3219 184.437 66.2199C184.568 66.1178 184.721 66.0469 184.884 66.0122L186.535 65.4068C187.38 65.104 187.752 65.3059 188.124 66.1829C188.868 68.0768 190.387 69.0237 192.681 69.0237C195.781 69.0237 197.331 68.038 197.331 66.0432C197.358 65.5809 197.229 65.1228 196.964 64.7427C196.7 64.3626 196.316 64.0826 195.874 63.9475C194.798 63.5699 193.672 63.3529 192.533 63.3033C190.969 63.1989 189.431 62.8479 187.976 62.2632C187.257 62.0208 186.587 61.65 186 61.1688C185.397 60.5678 184.925 59.849 184.612 59.0571C184.298 58.2653 184.151 57.4174 184.179 56.5661C184.179 52.9181 186.504 50.4809 190.797 49.9065V48.2455C190.797 47.4693 191.069 47.1977 191.844 47.1977H193.75Z" fill="#FFD200"/>
</svg>
