<svg width="345" height="260" viewBox="0 0 345 260" fill="none" xmlns="http://www.w3.org/2000/svg">
<path d="M273.471 59.2396C298.795 82.5713 305.346 119.566 305.577 156.665C305.809 193.765 299.783 230.917 274.63 245.315C249.414 259.661 205.134 251.201 171.926 241.952C138.656 232.651 116.52 222.509 92.3625 208.111C68.2053 193.765 40.5615 153.96 40.4769 135.358C40.3923 116.755 45.7922 82.5187 69.7784 59.2396C93.7643 35.9079 164.615 22.6644 197.739 13.4683C230.8 4.21969 248.084 35.9604 273.471 59.2396Z" fill="#6F86C4"/>
<path d="M117.585 90.829C117.585 90.829 93.4346 97.2367 100.335 130.345C107.235 163.453 85.9654 162.151 67.8529 159.27L66.7057 167.757C66.7057 167.757 114.143 182.418 120.457 140.737C126.77 99.0564 117.585 90.829 117.585 90.829Z" fill="#D8ADDD"/>
<path opacity="0.46" d="M117.585 90.829C117.585 90.829 93.4346 97.2367 100.335 130.345C107.235 163.453 85.9654 162.151 67.8529 159.27L66.7057 167.757C66.7057 167.757 114.143 182.418 120.457 140.737C126.77 99.0564 117.585 90.829 117.585 90.829Z" fill="white"/>
<path d="M43.5131 109.88V130.172H56.6317L59.4952 138.245L62.8849 130.172H76.0035V109.88H43.5131Z" fill="#E6E6E6"/>
<path d="M119.396 68.018C119.396 68.018 118.119 72.6233 118.326 75.8746C118.347 76.1921 118.431 76.5023 118.573 76.7871C118.714 77.0719 118.911 77.3256 119.152 77.5335C119.393 77.7414 119.673 77.8993 119.975 77.998C120.278 78.0966 120.597 78.1342 120.914 78.1083C121.932 78.0999 122.927 77.7976 123.777 77.2376C124.628 76.6777 125.299 75.8839 125.709 74.9519L127.883 71.1141C128.231 70.2987 128.319 69.3959 128.135 68.5286C127.952 67.6613 127.505 66.8717 126.857 66.2673C124.545 63.8698 120.025 65.1807 119.396 68.018Z" fill="#F4A28C"/>
<path d="M126.951 72.0627L130.703 87.2499L122.182 88.716L122.855 77.3666L126.951 72.0627Z" fill="#F4A28C"/>
<path d="M118.74 70.9588L117.093 72.5198C117 72.6089 116.931 72.7199 116.893 72.8426C116.854 72.9653 116.847 73.0958 116.872 73.222C116.896 73.3483 116.953 73.4662 117.035 73.565C117.117 73.6639 117.223 73.7404 117.343 73.7876L119.068 74.4603L118.74 70.9588Z" fill="#F4A28C"/>
<path opacity="0.31" d="M122.837 77.6943C122.837 77.6943 125.744 76.349 126.537 75.1588C126.537 75.1588 126.373 81.4113 122.509 83.231L122.837 77.6943Z" fill="#CE8172"/>
<path d="M124.14 72.3473C124.14 72.3473 124.51 70.5449 125.865 70.9416C127.219 71.3383 126.675 73.9342 124.778 73.8393L124.14 72.3473Z" fill="#F4A28C"/>
<path d="M129.66 70.0447L128.668 71.7695C128.668 71.7695 127.469 76.1851 124.528 78.4619C121.587 80.7387 117.455 80.273 117.093 77.1683C116.688 73.6065 119.077 74.4603 122.268 74.3137C125.459 74.1671 124.976 69.8895 124.976 69.8895C124.382 69.8909 123.796 69.747 123.27 69.4704C122.744 69.1939 122.293 68.793 121.957 68.3026C121.068 67.1075 119.878 66.17 118.507 65.586C115.67 64.3872 119.128 60.6788 119.128 60.6788C117.231 59.6353 118.689 57.4275 120.517 56.7548C122.346 56.0821 122.872 58.2296 124.269 58.6435C125.666 59.0575 125.132 56.8324 127.788 57.3844C130.445 57.9363 129.021 59.9199 130.652 61.3774C130.652 61.3774 132.515 59.9544 133.955 63.1885C134.817 65.034 134.352 65.9051 133.532 66.388C131.944 67.2482 130.609 68.5089 129.66 70.0447Z" fill="#24285B"/>
<path d="M277.811 34.0473H158.019V55.0645H277.811V34.0473Z" fill="#A5A5A5"/>
<path d="M278.277 193.897H158.484V214.914H278.277V193.897Z" fill="#A5A5A5"/>
<path d="M150.196 179.097H107.433V214.914H150.196V179.097Z" fill="#A5A5A5"/>
<path d="M234.6 122.738C273.74 111.579 269.445 55.0645 269.445 55.0645H165.359C165.359 55.0645 162.659 108.534 201.351 121.738C201.818 121.906 202.221 122.217 202.501 122.627C202.782 123.037 202.926 123.524 202.914 124.021C202.901 124.517 202.733 124.997 202.432 125.392C202.131 125.788 201.714 126.078 201.238 126.223C162.098 137.382 166.385 193.897 166.385 193.897H270.471C270.471 193.897 273.162 140.427 234.479 127.223C234.008 127.059 233.601 126.748 233.317 126.337C233.033 125.926 232.888 125.436 232.901 124.937C232.914 124.437 233.086 123.955 233.392 123.56C233.697 123.165 234.12 122.877 234.6 122.738V122.738Z" fill="#E6E6E6"/>
<path d="M165.376 179.097H122.613V214.914H165.376V179.097Z" fill="#C9C9C9"/>
<path d="M199.927 77.6426C197.426 77.1004 194.822 77.2918 192.427 78.1938C190.032 79.0958 187.948 80.67 186.426 82.7274C184.904 84.7847 184.008 87.2377 183.847 89.7916C183.685 92.3456 184.265 94.8919 185.515 97.1246C189.327 104.024 196.184 111.579 208.233 113.442C229.848 116.796 245.235 111.363 254.127 87.9312C254.654 86.5608 254.817 85.0774 254.601 83.6251C254.385 82.1729 253.798 80.8012 252.895 79.6433C251.992 78.4853 250.805 77.5806 249.449 77.017C248.093 76.4533 246.615 76.2499 245.157 76.4266H244.89C236.058 77.7374 235.074 89.1904 222.309 85.5941C215.703 83.7657 207.612 79.2725 199.927 77.6426Z" fill="#C9C9C9"/>
<path d="M173.863 189.705C173.856 186.378 174.781 183.116 176.534 180.288C178.288 177.46 180.798 175.181 183.781 173.707C192.003 169.816 200.669 166.943 209.587 165.152C235.462 159.59 239.37 178.244 249.521 179.882C259.673 181.521 262.286 189.705 262.286 189.705H173.863Z" fill="#C9C9C9"/>
<path d="M211.097 113.838L213.797 171.042H220.015L218.376 113.838H211.097Z" fill="#C9C9C9"/>
<path d="M223.293 111.484V171.042H225.009L226.725 110.259L223.293 111.484Z" fill="#C9C9C9"/>
<path d="M121.845 207.704C121.845 207.704 120.655 210.998 117.68 211.248C114.704 211.498 113.919 214.413 116.601 215.172C119.284 215.931 126.184 212.49 126.184 212.49L125.994 208.178L121.845 207.704Z" fill="#D8ADDD"/>
<path d="M122.182 88.716L130.703 87.2499C130.703 87.2499 159.036 87.2499 163.996 96.9953C168.955 106.741 167.92 142.816 151.524 172.465L117.964 173.44C117.964 173.44 119.827 151.664 113.574 139.806C107.321 127.947 87.8801 102.748 122.182 88.716Z" fill="#D8ADDD"/>
<path d="M151.524 172.465L135.136 169.99C132.766 169.633 130.345 169.823 128.059 170.545C125.773 171.268 123.682 172.504 121.947 174.158C120.213 175.813 118.879 177.843 118.05 180.092C117.221 182.341 116.917 184.75 117.162 187.135L119.31 207.98H127.365L126.667 188.463C126.626 187.371 126.828 186.284 127.258 185.28C127.689 184.275 128.336 183.379 129.154 182.655C129.973 181.93 130.941 181.397 131.991 181.092C133.04 180.787 134.144 180.718 135.223 180.891C142.183 182.021 150.843 181.529 151.524 172.465Z" fill="#24285B"/>
<path d="M105.139 207.704C105.139 207.704 103.949 210.998 100.973 211.248C97.9973 211.498 97.2124 214.413 99.8948 215.172C102.577 215.931 109.477 212.49 109.477 212.49L109.279 208.178L105.139 207.704Z" fill="#D8ADDD"/>
<path opacity="0.08" d="M147.151 96.0897C143.652 98.5852 140.944 102.033 139.349 106.024C137.754 110.015 137.34 114.379 138.155 118.599C140.889 133.553 152.895 160.995 128.202 156.183L129.677 167.619L146.435 166.032L160.002 156.976L163.314 131.854L147.151 96.0897Z" fill="black"/>
<path d="M134.817 172.465L118.43 169.99C116.059 169.633 113.638 169.823 111.352 170.545C109.066 171.268 106.975 172.504 105.241 174.158C103.506 175.813 102.173 177.843 101.343 180.092C100.514 182.341 100.21 184.75 100.455 187.135L102.603 207.98H110.65L109.96 188.463C109.92 187.371 110.122 186.284 110.552 185.28C110.982 184.275 111.629 183.379 112.448 182.655C113.266 181.93 114.235 181.397 115.284 181.092C116.333 180.787 117.437 180.718 118.516 180.891C125.477 182.021 134.127 181.529 134.817 172.465Z" fill="#24285B"/>
<path d="M145.374 100.971C146.159 92.3468 156.863 88.6902 162.581 95.1756C165.307 98.263 167.48 102.782 167.911 109.414C169.205 129.431 185.343 188.489 122.199 169.844L123.803 162.418C123.803 162.418 143.132 166.73 153.266 157.028C161.693 148.973 143.382 122.764 145.374 100.971Z" fill="#D8ADDD"/>
<path opacity="0.46" d="M145.374 100.971C146.159 92.3468 156.863 88.6902 162.581 95.1756C165.307 98.263 167.48 102.782 167.911 109.414C169.205 129.431 185.343 188.489 122.199 169.844L123.803 162.418C123.803 162.418 143.132 166.73 153.266 157.028C161.693 148.973 143.382 122.764 145.374 100.971Z" fill="white"/>
<path d="M104.587 171.103L94.2109 142.678H124.735L131.074 169.413L138.647 170.706V174.371L104.587 171.103Z" fill="#FFD200"/>
<path d="M113.341 158.701C115.046 158.701 116.429 157.319 116.429 155.614C116.429 153.909 115.046 152.526 113.341 152.526C111.636 152.526 110.253 153.909 110.253 155.614C110.253 157.319 111.636 158.701 113.341 158.701Z" fill="white"/>
<path opacity="0.08" d="M98.7045 154.993L124.778 173.043L104.587 171.103L98.7045 154.993Z" fill="black"/>
<path d="M119.077 90.0873C119.077 90.0873 118.214 87.3017 122.182 85.2578C126.149 83.2138 133.955 80.3851 136.646 87.6725C136.646 87.6725 127.917 93.3127 119.077 90.0873Z" fill="#D8ADDD"/>
<path opacity="0.46" d="M119.077 90.0873C119.077 90.0873 118.214 87.3017 122.182 85.2578C126.149 83.2138 133.955 80.3851 136.646 87.6725C136.646 87.6725 127.917 93.3127 119.077 90.0873Z" fill="white"/>
<path d="M67.8615 159.27C67.8615 159.27 62.2553 154.682 60.099 157.701C57.9428 160.719 66.7144 165.894 66.7144 165.894L67.8615 159.27Z" fill="#F4A28C"/>
<path d="M70.1664 154.107L59.3105 143.252L52.9312 149.631L63.787 160.485L70.1664 154.107Z" fill="#FFD200"/>
<path d="M126.891 70.4931C126.891 70.4931 129.211 69.1219 130.074 70.9675C130.936 72.8131 128.349 74.2533 126.624 73.1321C127.027 72.3133 127.122 71.3763 126.891 70.4931V70.4931Z" fill="#F4A28C"/>
<path d="M51.9053 122.014C53.2581 122.014 54.3548 120.917 54.3548 119.565C54.3548 118.212 53.2581 117.115 51.9053 117.115C50.5524 117.115 49.4557 118.212 49.4557 119.565C49.4557 120.917 50.5524 122.014 51.9053 122.014Z" fill="#A5A5A5"/>
<path d="M59.4866 122.014C60.8394 122.014 61.9361 120.917 61.9361 119.565C61.9361 118.212 60.8394 117.115 59.4866 117.115C58.1338 117.115 57.0371 118.212 57.0371 119.565C57.0371 120.917 58.1338 122.014 59.4866 122.014Z" fill="#A5A5A5"/>
<path d="M66.8782 122.014C68.2311 122.014 69.3277 120.917 69.3277 119.565C69.3277 118.212 68.2311 117.115 66.8782 117.115C65.5254 117.115 64.4287 118.212 64.4287 119.565C64.4287 120.917 65.5254 122.014 66.8782 122.014Z" fill="#A5A5A5"/>
</svg>
