<svg width="100" height="100" viewBox="0 0 100 100" fill="none" xmlns="http://www.w3.org/2000/svg">
<path d="M48.4375 89.0625V10.9375C48.4375 10.5231 48.6021 10.1257 48.8951 9.83265C49.1882 9.53962 49.5856 9.375 50 9.375C50.4144 9.375 50.8118 9.53962 51.1049 9.83265C51.3979 10.1257 51.5625 10.5231 51.5625 10.9375V89.0625C51.5625 89.4769 51.3979 89.8743 51.1049 90.1674C50.8118 90.4604 50.4144 90.625 50 90.625C49.5856 90.625 49.1882 90.4604 48.8951 90.1674C48.6021 89.8743 48.4375 89.4769 48.4375 89.0625Z" fill="#AAE0E5"/>
<path d="M89.0625 51.5625H10.9375C10.5231 51.5625 10.1257 51.3979 9.83265 51.1049C9.53962 50.8118 9.375 50.4144 9.375 50C9.375 49.5856 9.53962 49.1882 9.83265 48.8951C10.1257 48.6021 10.5231 48.4375 10.9375 48.4375H89.0625C89.4769 48.4375 89.8743 48.6021 90.1674 48.8951C90.4604 49.1882 90.625 49.5856 90.625 50C90.625 50.4144 90.4604 50.8118 90.1674 51.1049C89.8743 51.3979 89.4769 51.5625 89.0625 51.5625Z" fill="#AAE0E5"/>
<path d="M22.375 79.1875C22.0741 79.1806 21.7815 79.0869 21.5326 78.9177C21.2836 78.7485 21.0888 78.511 20.9716 78.2337C20.8545 77.9564 20.8199 77.6512 20.872 77.3547C20.9242 77.0583 21.0609 76.7832 21.2656 76.5625L76.5625 21.2657C76.8633 21.0599 77.2265 20.9657 77.5894 20.9994C77.9523 21.0331 78.292 21.1926 78.5497 21.4503C78.8074 21.708 78.9669 22.0477 79.0007 22.4106C79.0344 22.7735 78.9402 23.1368 78.7344 23.4375C19.7656 82.4375 23.4375 79.1875 22.375 79.1875Z" fill="#AAE0E5"/>
<path d="M77.625 79.1875C76.6406 79.1875 80.2656 82.4688 21.2656 23.4844C21.0236 23.1866 20.8997 22.8102 20.9174 22.4269C20.9351 22.0436 21.0933 21.6802 21.3617 21.406C21.6301 21.1318 21.99 20.966 22.3728 20.9401C22.7556 20.9142 23.1346 21.0301 23.4375 21.2656L78.7344 76.5625C78.9391 76.7831 79.0758 77.0582 79.128 77.3547C79.1801 77.6512 79.1455 77.9564 79.0283 78.2337C78.9112 78.5109 78.7164 78.7485 78.4674 78.9177C78.2185 79.0869 77.9259 79.1806 77.625 79.1875Z" fill="#AAE0E5"/>
<path d="M50 10.9375C52.5888 10.9375 54.6875 8.83883 54.6875 6.25C54.6875 3.66117 52.5888 1.5625 50 1.5625C47.4112 1.5625 45.3125 3.66117 45.3125 6.25C45.3125 8.83883 47.4112 10.9375 50 10.9375Z" fill="url(#paint0_linear)"/>
<path d="M50 98.4375C52.5888 98.4375 54.6875 96.3388 54.6875 93.75C54.6875 91.1612 52.5888 89.0625 50 89.0625C47.4112 89.0625 45.3125 91.1612 45.3125 93.75C45.3125 96.3388 47.4112 98.4375 50 98.4375Z" fill="url(#paint1_linear)"/>
<path d="M80.9375 23.75C83.5263 23.75 85.625 21.6513 85.625 19.0625C85.625 16.4737 83.5263 14.375 80.9375 14.375C78.3487 14.375 76.25 16.4737 76.25 19.0625C76.25 21.6513 78.3487 23.75 80.9375 23.75Z" fill="url(#paint2_linear)"/>
<path d="M19.0625 85.625C21.6513 85.625 23.75 83.5263 23.75 80.9375C23.75 78.3487 21.6513 76.25 19.0625 76.25C16.4737 76.25 14.375 78.3487 14.375 80.9375C14.375 83.5263 16.4737 85.625 19.0625 85.625Z" fill="url(#paint3_linear)"/>
<path d="M80.9375 85.625C83.5263 85.625 85.625 83.5263 85.625 80.9375C85.625 78.3487 83.5263 76.25 80.9375 76.25C78.3487 76.25 76.25 78.3487 76.25 80.9375C76.25 83.5263 78.3487 85.625 80.9375 85.625Z" fill="url(#paint4_linear)"/>
<path d="M19.0625 23.75C21.6513 23.75 23.75 21.6513 23.75 19.0625C23.75 16.4737 21.6513 14.375 19.0625 14.375C16.4737 14.375 14.375 16.4737 14.375 19.0625C14.375 21.6513 16.4737 23.75 19.0625 23.75Z" fill="url(#paint5_linear)"/>
<path d="M93.75 54.6875C96.3388 54.6875 98.4375 52.5888 98.4375 50C98.4375 47.4112 96.3388 45.3125 93.75 45.3125C91.1612 45.3125 89.0625 47.4112 89.0625 50C89.0625 52.5888 91.1612 54.6875 93.75 54.6875Z" fill="url(#paint6_linear)"/>
<path d="M6.25 54.6875C8.83883 54.6875 10.9375 52.5888 10.9375 50C10.9375 47.4112 8.83883 45.3125 6.25 45.3125C3.66117 45.3125 1.5625 47.4112 1.5625 50C1.5625 52.5888 3.66117 54.6875 6.25 54.6875Z" fill="url(#paint7_linear)"/>
<path d="M7.98438 37.6719C7.58457 37.5722 7.16159 37.6345 6.80751 37.8452C6.45342 38.0559 6.19689 38.398 6.09375 38.7969C6.01625 39.0966 6.02955 39.4127 6.13197 39.7048C6.23438 39.997 6.42129 40.2522 6.66898 40.438C6.91667 40.6238 7.21397 40.7318 7.52314 40.7483C7.83232 40.7648 8.13943 40.6891 8.4055 40.5308C8.67158 40.3724 8.88462 40.1386 9.01758 39.859C9.15055 39.5794 9.19745 39.2666 9.15232 38.9603C9.1072 38.654 8.9721 38.368 8.76415 38.1386C8.55621 37.9092 8.2848 37.7468 7.98438 37.6719ZM10.1719 31.8125C9.958 31.7214 9.72649 31.6792 9.49423 31.689C9.26198 31.6987 9.03482 31.7602 8.82933 31.8688C8.62383 31.9775 8.44517 32.1307 8.30637 32.3171C8.16757 32.5036 8.07212 32.7187 8.02699 32.9467C7.98186 33.1748 7.98817 33.41 8.04548 33.6353C8.10279 33.8606 8.20964 34.0703 8.35825 34.249C8.50686 34.4278 8.69349 34.5711 8.90452 34.6686C9.11555 34.7661 9.34568 34.8152 9.57813 34.8125C9.9367 34.8083 10.2829 34.6809 10.5587 34.4516C10.8344 34.2224 11.0229 33.9052 11.0925 33.5535C11.1621 33.2017 11.1087 32.8367 10.941 32.5197C10.7734 32.2027 10.5018 31.953 10.1719 31.8125ZM13.1719 26.3281C12.9651 26.2054 12.7327 26.1321 12.4929 26.1139C12.2532 26.0956 12.0124 26.133 11.7894 26.2231C11.5665 26.3131 11.3673 26.4534 11.2074 26.633C11.0475 26.8127 10.9312 27.0268 10.8677 27.2587C10.8041 27.4906 10.7949 27.7341 10.8408 27.9701C10.8867 28.2062 10.9864 28.4285 11.1323 28.6196C11.2782 28.8108 11.4662 28.9658 11.6817 29.0724C11.8973 29.179 12.1345 29.2344 12.375 29.2344C12.7173 29.2343 13.0501 29.1218 13.3223 28.9141C13.5945 28.7065 13.7909 28.4152 13.8814 28.0851C13.9719 27.7549 13.9515 27.4042 13.8234 27.0868C13.6952 26.7693 13.4663 26.5028 13.1719 26.3281Z" fill="#FFD39F"/>
<path d="M73.125 11.0313C72.7686 10.82 72.3429 10.7589 71.9414 10.8615C71.54 10.964 71.1958 11.2218 70.9844 11.5781C70.8267 11.8439 70.7514 12.1505 70.7679 12.4591C70.7845 12.7678 70.8922 13.0645 71.0775 13.3119C71.2627 13.5593 71.5172 13.7462 71.8087 13.8489C72.1001 13.9517 72.4155 13.9657 72.715 13.8892C73.0144 13.8127 73.2844 13.6491 73.4909 13.4192C73.6973 13.1892 73.831 12.9032 73.8749 12.5972C73.9187 12.2913 73.8709 11.9793 73.7375 11.7005C73.604 11.4218 73.3908 11.1889 73.125 11.0313ZM67.3437 8.12501C67.154 8.04561 66.9504 8.00445 66.7447 8.0039C66.539 8.00335 66.3353 8.04342 66.1451 8.12181C65.9549 8.2002 65.7821 8.31537 65.6365 8.46072C65.491 8.60606 65.3755 8.77871 65.2969 8.96876C65.1788 9.25406 65.1478 9.56796 65.208 9.87082C65.2682 10.1737 65.4167 10.4519 65.6349 10.6704C65.8531 10.8889 66.1311 11.0379 66.4339 11.0985C66.7366 11.1591 67.0506 11.1287 67.336 11.011C67.6215 10.8933 67.8657 10.6937 68.0378 10.4373C68.2099 10.181 68.3022 9.87934 68.3031 9.57057C68.3039 9.26179 68.2132 8.95969 68.0425 8.70241C67.8717 8.44514 67.6286 8.24421 67.3437 8.12501ZM61.2031 6.09376C60.9979 6.06811 60.7897 6.08313 60.5903 6.13796C60.3909 6.19279 60.2043 6.28635 60.0411 6.4133C59.7114 6.6697 59.4971 7.04655 59.4453 7.46095C59.3935 7.87535 59.5084 8.29336 59.7648 8.62301C60.0212 8.95266 60.3981 9.16696 60.8125 9.21876C61.2269 9.27056 61.6449 9.15562 61.9746 8.89922C62.3042 8.64283 62.5185 8.26598 62.5703 7.85158C62.6221 7.43718 62.5072 7.01917 62.2508 6.68952C61.9944 6.35986 61.6175 6.14556 61.2031 6.09376Z" fill="#FFD39F"/>
<path d="M88.4219 70.9843C88.2151 70.8616 87.9827 70.7883 87.7429 70.7701C87.5032 70.7518 87.2624 70.7892 87.0394 70.8793C86.8165 70.9693 86.6173 71.1096 86.4574 71.2892C86.2975 71.4689 86.1813 71.683 86.1177 71.9149C86.0541 72.1468 86.0449 72.3903 86.0908 72.6263C86.1367 72.8624 86.2364 73.0847 86.3823 73.2758C86.5282 73.467 86.7162 73.622 86.9317 73.7286C87.1473 73.8352 87.3845 73.8906 87.625 73.8906C87.9673 73.8905 88.3001 73.778 88.5723 73.5703C88.8445 73.3627 89.0409 73.0714 89.1314 72.7413C89.2219 72.4111 89.2015 72.0604 89.0734 71.743C88.9452 71.4255 88.7163 71.159 88.4219 70.9843ZM91.0156 65.2968C90.6342 65.1413 90.2068 65.1427 89.8264 65.3008C89.446 65.4588 89.1434 65.7606 88.9844 66.1406C88.8649 66.4262 88.8329 66.7409 88.8926 67.0448C88.9522 67.3486 89.1008 67.6279 89.3195 67.8471C89.5382 68.0664 89.817 68.2157 90.1207 68.2761C90.4244 68.3366 90.7392 68.3055 91.0252 68.1867C91.3111 68.0679 91.5553 67.8668 91.7268 67.609C91.8983 67.3512 91.9893 67.0482 91.9883 66.7386C91.9872 66.4289 91.8942 66.1266 91.7211 65.8699C91.5479 65.6132 91.3024 65.4137 91.0156 65.2968ZM92.7813 59.375C92.5761 59.3493 92.3678 59.3643 92.1684 59.4191C91.9691 59.474 91.7824 59.5675 91.6192 59.6945C91.2895 59.9509 91.0752 60.3277 91.0234 60.7421C90.9716 61.1565 91.0866 61.5745 91.343 61.9042C91.5994 62.2339 91.9762 62.4482 92.3906 62.5C92.805 62.5518 93.223 62.4368 93.5527 62.1804C93.8823 61.924 94.0966 61.5472 94.1484 61.1328C94.2002 60.7184 94.0853 60.3004 93.8289 59.9707C93.5725 59.6411 93.1957 59.4268 92.7813 59.375Z" fill="#FFD39F"/>
<path d="M39.5625 90.875C39.3573 90.8494 39.1491 90.8644 38.9497 90.9192C38.7503 90.974 38.5637 91.0676 38.4004 91.1945C38.0708 91.4509 37.8565 91.8278 37.8047 92.2422C37.7529 92.6566 37.8678 93.0746 38.1242 93.4042C38.3806 93.7339 38.7575 93.9482 39.1719 94C39.5863 94.0518 40.0043 93.9369 40.3339 93.6805C40.6636 93.4241 40.8779 93.0472 40.9297 92.6328C40.9815 92.2184 40.8666 91.8004 40.6102 91.4708C40.3538 91.1411 39.9769 90.9268 39.5625 90.875ZM33.8438 89.0625C33.5573 88.9458 33.2427 88.9167 32.9398 88.9789C32.6368 89.0411 32.3591 89.1918 32.1419 89.4119C31.9246 89.632 31.7776 89.9117 31.7194 90.2154C31.6612 90.5192 31.6945 90.8334 31.815 91.1182C31.9355 91.4031 32.1378 91.6457 32.3964 91.8155C32.6549 91.9853 32.958 92.0745 33.2672 92.0719C33.5765 92.0693 33.8781 91.9749 34.1337 91.8008C34.3893 91.6267 34.5875 91.3806 34.7031 91.0938C34.8577 90.7104 34.8541 90.2813 34.693 89.9006C34.5319 89.5199 34.2266 89.2185 33.8438 89.0625ZM28.4688 86.3594C28.2619 86.2367 28.0296 86.1633 27.7898 86.1451C27.55 86.1269 27.3093 86.1643 27.0863 86.2543C26.8633 86.3444 26.6641 86.4847 26.5043 86.6643C26.3444 86.8439 26.2281 87.058 26.1645 87.29C26.1009 87.5219 26.0917 87.7653 26.1376 88.0014C26.1835 88.2374 26.2833 88.4597 26.4292 88.6509C26.575 88.8421 26.7631 88.997 26.9786 89.1036C27.1942 89.2103 27.4314 89.2657 27.6719 89.2656C28.043 89.3062 28.4165 89.2125 28.7245 89.0015C29.0326 88.7905 29.2549 88.4762 29.3512 88.1155C29.4476 87.7547 29.4115 87.3714 29.2496 87.0349C29.0878 86.6985 28.8107 86.4311 28.4688 86.2813V86.3594Z" fill="#FFD39F"/>
<path d="M13.7187 71.5312C13.5792 71.2959 13.3804 71.1014 13.1422 70.967C12.9039 70.8327 12.6346 70.7632 12.3611 70.7656C12.0876 70.768 11.8195 70.8422 11.5836 70.9806C11.3477 71.1191 11.1523 71.3171 11.017 71.5548C10.8816 71.7925 10.811 72.0615 10.8122 72.335C10.8134 72.6085 10.8864 72.8769 11.0239 73.1134C11.1614 73.3499 11.3585 73.5461 11.5956 73.6825C11.8327 73.8189 12.1015 73.8906 12.375 73.8906C12.6508 73.8905 12.9216 73.8175 13.1601 73.6789C13.3985 73.5402 13.596 73.341 13.7325 73.1013C13.8689 72.8617 13.9396 72.5902 13.9372 72.3144C13.9347 72.0386 13.8594 71.7684 13.7187 71.5312ZM11.0156 66.1406C10.9369 65.9505 10.8215 65.7779 10.676 65.6325C10.5304 65.4872 10.3576 65.372 10.1674 65.2936C9.97722 65.2152 9.77344 65.1752 9.56775 65.1757C9.36205 65.1762 9.15849 65.2174 8.96874 65.2968C8.6839 65.416 8.44076 65.6169 8.27002 65.8742C8.09928 66.1315 8.0086 66.4336 8.00943 66.7424C8.01025 67.0511 8.10254 67.3528 8.27465 67.6091C8.44676 67.8655 8.69097 68.0651 8.97644 68.1828C9.26192 68.3005 9.57586 68.3309 9.87863 68.2703C10.1814 68.2097 10.4594 68.0607 10.6776 67.8422C10.8958 67.6237 11.0443 67.3455 11.1045 67.0426C11.1646 66.7398 11.1337 66.4259 11.0156 66.1406ZM9.12499 60.4374C8.99438 60.0709 8.73172 59.7663 8.38839 59.5832C8.04507 59.4001 7.64578 59.3517 7.26864 59.4475C6.89151 59.5432 6.56367 59.7762 6.34926 60.1009C6.13486 60.4256 6.04931 60.8186 6.10936 61.2031C6.25151 61.553 6.51561 61.8396 6.85279 62.0098C7.18996 62.1801 7.57739 62.2224 7.94337 62.129C8.30935 62.0356 8.6291 61.8128 8.84347 61.5018C9.05783 61.1908 9.15229 60.8127 9.10936 60.4374H9.12499Z" fill="#FFD39F"/>
<path d="M62.3281 92.0156C62.225 91.6167 61.9685 91.2747 61.6144 91.064C61.2603 90.8533 60.8373 90.791 60.4375 90.8906C60.1371 90.9655 59.8657 91.1279 59.6577 91.3573C59.4498 91.5867 59.3147 91.8727 59.2696 92.179C59.2244 92.4853 59.2713 92.7982 59.4043 93.0778C59.5373 93.3574 59.7503 93.5912 60.0164 93.7495C60.2824 93.9078 60.5896 93.9835 60.8987 93.967C61.2079 93.9505 61.5052 93.8425 61.7529 93.6567C62.0006 93.471 62.1875 93.2158 62.2899 92.9236C62.3923 92.6314 62.4056 92.3154 62.3281 92.0156ZM68.1875 89.8281C68.0798 89.5659 67.9028 89.338 67.6754 89.1687C67.448 88.9994 67.1789 88.8951 66.8968 88.8671C66.6147 88.839 66.3303 88.8882 66.0741 89.0094C65.8178 89.1307 65.5994 89.3193 65.4421 89.5552C65.2849 89.791 65.1948 90.0652 65.1814 90.3484C65.1681 90.6315 65.2321 90.913 65.3664 91.1626C65.5008 91.4122 65.7006 91.6205 65.9443 91.7653C66.188 91.9101 66.4665 91.9858 66.75 91.9844C67.0059 91.9831 67.2576 91.919 67.4829 91.7977C67.7083 91.6763 67.9003 91.5015 68.0423 91.2886C68.1843 91.0757 68.2717 90.8311 68.2971 90.5765C68.3224 90.3218 68.2848 90.0648 68.1875 89.8281ZM73.6719 86.8281C73.5324 86.5928 73.3336 86.3983 73.0953 86.264C72.8571 86.1296 72.5877 86.0602 72.3142 86.0626C72.0407 86.0649 71.7726 86.1391 71.5367 86.2776C71.3009 86.4161 71.1055 86.614 70.9701 86.8517C70.8348 87.0894 70.7642 87.3584 70.7654 87.632C70.7666 87.9055 70.8396 88.1739 70.9771 88.4103C71.1145 88.6468 71.3117 88.843 71.5488 88.9794C71.7859 89.1158 72.0546 89.1875 72.3281 89.1875C72.6039 89.1875 72.8748 89.1144 73.1132 88.9758C73.3516 88.8372 73.5491 88.6379 73.6856 88.3983C73.8221 88.1586 73.8927 87.8871 73.8903 87.6114C73.8879 87.3356 73.8125 87.0653 73.6719 86.8281Z" fill="#FFD39F"/>
<path d="M93.9063 38.7969C93.8363 38.5145 93.6889 38.2572 93.4806 38.054C93.2723 37.8509 93.0115 37.7099 92.7274 37.647C92.4433 37.5841 92.1474 37.6018 91.8728 37.698C91.5982 37.7942 91.356 37.9652 91.1733 38.1917C90.9907 38.4182 90.8749 38.6911 90.839 38.9799C90.8031 39.2686 90.8486 39.5616 90.9702 39.8259C91.0919 40.0902 91.2849 40.3153 91.5276 40.4758C91.7703 40.6363 92.0529 40.7258 92.3438 40.7344C92.5847 40.7414 92.824 40.6927 93.0429 40.5919C93.2619 40.4911 93.4545 40.341 93.6059 40.1534C93.7572 39.9658 93.863 39.7457 93.9151 39.5104C93.9672 39.275 93.9642 39.0308 93.9063 38.7969ZM91.8594 32.6563C91.7412 32.3696 91.5405 32.1247 91.2827 31.9525C91.0249 31.7803 90.7218 31.6886 90.4118 31.6892C90.1018 31.6899 89.799 31.7827 89.5418 31.9558C89.2847 32.129 89.085 32.3748 88.9679 32.6619C88.8509 32.9489 88.8219 33.2643 88.8846 33.5679C88.9473 33.8715 89.099 34.1496 89.3202 34.3667C89.5414 34.5839 89.8222 34.7304 90.1269 34.7875C90.4316 34.8446 90.7464 34.8098 91.0312 34.6875C91.4084 34.5256 91.7067 34.2217 91.8617 33.8416C92.0166 33.4615 92.0158 33.0357 91.8594 32.6563ZM88.9687 26.875C88.8293 26.6397 88.6304 26.4452 88.3922 26.3108C88.1539 26.1765 87.8846 26.107 87.6111 26.1094C87.3376 26.1118 87.0695 26.186 86.8336 26.3245C86.5977 26.4629 86.4024 26.6609 86.267 26.8986C86.1316 27.1363 86.061 27.4053 86.0622 27.6788C86.0635 27.9524 86.1365 28.2208 86.2739 28.4572C86.4114 28.6937 86.6085 28.8899 86.8456 29.0263C87.0827 29.1627 87.3515 29.2344 87.625 29.2344C87.9008 29.2343 88.1716 29.1613 88.4101 29.0227C88.6485 28.8841 88.846 28.6848 88.9825 28.4452C89.119 28.2055 89.1896 27.934 89.1872 27.6582C89.1848 27.3825 89.1094 27.1122 88.9687 26.875Z" fill="#FFD39F"/>
<path d="M29.0156 11.5781C28.8761 11.3429 28.6773 11.1483 28.4391 11.014C28.2008 10.8796 27.9315 10.8102 27.658 10.8126C27.3844 10.815 27.1164 10.8891 26.8805 11.0276C26.6446 11.1661 26.4492 11.3641 26.3139 11.6017C26.1785 11.8394 26.1079 12.1085 26.1091 12.382C26.1103 12.6555 26.1833 12.9239 26.3208 13.1604C26.4583 13.3968 26.6554 13.593 26.8925 13.7294C27.1296 13.8658 27.3984 13.9376 27.6719 13.9375C27.9477 13.9375 28.2185 13.8644 28.4569 13.7258C28.6954 13.5872 28.8928 13.3879 29.0293 13.1483C29.1658 12.9086 29.2364 12.6371 29.234 12.3614C29.2316 12.0856 29.1563 11.8154 29.0156 11.5781ZM34.6875 8.96876C34.5089 8.61693 34.2038 8.34568 33.8335 8.20951C33.4632 8.07333 33.055 8.0823 32.691 8.23462C32.3271 8.38694 32.0342 8.67133 31.8712 9.03067C31.7082 9.39002 31.6873 9.79772 31.8125 10.1719C31.9911 10.5237 32.2962 10.795 32.6665 10.9311C33.0368 11.0673 33.445 11.0584 33.809 10.906C34.1729 10.7537 34.4658 10.4693 34.6288 10.11C34.7918 9.75063 34.8127 9.34294 34.6875 8.96876ZM38.7812 6.09376C38.3668 6.14556 37.99 6.35986 37.7336 6.68952C37.4772 7.01917 37.3623 7.43718 37.4141 7.85158C37.4659 8.26598 37.6802 8.64283 38.0098 8.89922C38.3395 9.15562 38.7575 9.27056 39.1719 9.21876C39.3771 9.19311 39.5752 9.1273 39.7549 9.02508C39.9347 8.92286 40.0926 8.78624 40.2195 8.62301C40.3465 8.45978 40.44 8.27315 40.4949 8.07376C40.5497 7.87437 40.5647 7.66614 40.5391 7.46095C40.5134 7.25576 40.4476 7.05763 40.3454 6.87788C40.2432 6.69812 40.1065 6.54026 39.9433 6.4133C39.7801 6.28635 39.5934 6.19279 39.3941 6.13796C39.1947 6.08313 38.9864 6.06811 38.7812 6.09376Z" fill="#FFD39F"/>
<path d="M71.2656 44.9375L74.7812 42.9062L68.5312 32.0938L65.0156 34.1094C62.5297 31.7597 59.5275 30.0258 56.25 29.0469V25H43.75V29.0469C40.4725 30.0258 37.4703 31.7597 34.9844 34.1094L31.4687 32.0938L25.2188 42.9062L28.7344 44.9375C27.9217 48.2636 27.9217 51.7364 28.7344 55.0625L25.2188 57.0938L31.4687 67.9062L34.9844 65.8906C37.4703 68.2402 40.4725 69.9742 43.75 70.9531V75H56.25V70.9531C59.5275 69.9742 62.5297 68.2402 65.0156 65.8906L68.5312 67.9062L74.7812 57.0938L71.2656 55.0625C72.0783 51.7364 72.0783 48.2636 71.2656 44.9375Z" fill="url(#paint8_linear)"/>
<path d="M71.2656 55.0625L74.7812 57.0938L68.5312 67.9062L65.0156 65.8906C62.5297 68.2402 59.5275 69.9742 56.25 70.9531V75H43.75V70.9531C40.4725 69.9742 37.4703 68.2402 34.9844 65.8906L31.4687 67.9062L25.2188 57.0938L28.7344 55.0625C28.188 52.8993 27.9824 50.6641 28.125 48.4375C28.125 54.2391 30.4297 59.8031 34.532 63.9055C38.6344 68.0078 44.1984 70.3125 50 70.3125C55.8016 70.3125 61.3656 68.0078 65.468 63.9055C69.5703 59.8031 71.875 54.2391 71.875 48.4375C72.026 50.6642 71.8203 52.9007 71.2656 55.0625Z" fill="#42455E"/>
<path d="M28.25 44.6562C29.2344 45.2344 28.4531 44.3594 28.25 48.4375C28.1278 47.18 28.1278 45.9137 28.25 44.6562Z" fill="url(#paint9_linear)"/>
<path d="M50 65.625C58.6294 65.625 65.625 58.6294 65.625 50C65.625 41.3706 58.6294 34.375 50 34.375C41.3706 34.375 34.375 41.3706 34.375 50C34.375 58.6294 41.3706 65.625 50 65.625Z" fill="url(#paint10_linear)"/>
<path d="M50 65.625C58.6294 65.625 65.625 58.6294 65.625 50C65.625 41.3706 58.6294 34.375 50 34.375C41.3706 34.375 34.375 41.3706 34.375 50C34.375 58.6294 41.3706 65.625 50 65.625Z" fill="url(#paint11_linear)"/>
<path d="M65.625 51.5625C65.2381 47.708 63.4332 44.1347 60.5604 41.5359C57.6877 38.9371 53.952 37.498 50.0781 37.498C46.2043 37.498 42.4686 38.9371 39.5958 41.5359C36.7231 44.1347 34.9182 47.708 34.5313 51.5625C34.3132 49.3899 34.5529 47.1957 35.2349 45.1215C35.9169 43.0472 37.0261 41.1389 38.491 39.5197C39.9558 37.9004 41.7438 36.6062 43.7396 35.7204C45.7353 34.8346 47.8946 34.377 50.0781 34.377C52.2616 34.377 54.4209 34.8346 56.4167 35.7204C58.4125 36.6062 60.2004 37.9004 61.6653 39.5197C63.1301 41.1389 64.2393 43.0472 64.9214 45.1215C65.6034 47.1957 65.8431 49.3899 65.625 51.5625Z" fill="#F2A961"/>
<path d="M51.5625 48.4375H48.4375C48.0231 48.4375 47.6257 48.2729 47.3326 47.9799C47.0396 47.6868 46.875 47.2894 46.875 46.875C46.875 46.4606 47.0396 46.0632 47.3326 45.7701C47.6257 45.4771 48.0231 45.3125 48.4375 45.3125H54.6875C55.1019 45.3125 55.4993 45.1479 55.7924 44.8549C56.0854 44.5618 56.25 44.1644 56.25 43.75C56.25 43.3356 56.0854 42.9382 55.7924 42.6451C55.4993 42.3521 55.1019 42.1875 54.6875 42.1875H51.5625V40.625C51.5625 40.2106 51.3979 39.8132 51.1049 39.5201C50.8118 39.2271 50.4144 39.0625 50 39.0625C49.5856 39.0625 49.1882 39.2271 48.8951 39.5201C48.6021 39.8132 48.4375 40.2106 48.4375 40.625V42.1875C47.1943 42.1875 46.002 42.6814 45.1229 43.5604C44.2439 44.4395 43.75 45.6318 43.75 46.875C43.75 48.1182 44.2439 49.3105 45.1229 50.1896C46.002 51.0686 47.1943 51.5625 48.4375 51.5625H51.5625C51.9769 51.5625 52.3743 51.7271 52.6674 52.0201C52.9604 52.3132 53.125 52.7106 53.125 53.125C53.125 53.5394 52.9604 53.9368 52.6674 54.2299C52.3743 54.5229 51.9769 54.6875 51.5625 54.6875H45.3125C44.8981 54.6875 44.5007 54.8521 44.2076 55.1451C43.9146 55.4382 43.75 55.8356 43.75 56.25C43.75 56.6644 43.9146 57.0618 44.2076 57.3549C44.5007 57.6479 44.8981 57.8125 45.3125 57.8125H48.4375V59.375C48.4375 59.7894 48.6021 60.1868 48.8951 60.4799C49.1882 60.7729 49.5856 60.9375 50 60.9375C50.4144 60.9375 50.8118 60.7729 51.1049 60.4799C51.3979 60.1868 51.5625 59.7894 51.5625 59.375V57.8125C52.8057 57.8125 53.998 57.3186 54.8771 56.4396C55.7561 55.5605 56.25 54.3682 56.25 53.125C56.25 51.8818 55.7561 50.6895 54.8771 49.8104C53.998 48.9314 52.8057 48.4375 51.5625 48.4375Z" fill="#FFF2E3"/>
<defs>
<linearGradient id="paint0_linear" x1="50" y1="10.9375" x2="50" y2="1.5625" gradientUnits="userSpaceOnUse">
<stop stop-color="#E9A254"/>
<stop offset="1" stop-color="#F4BB79"/>
</linearGradient>
<linearGradient id="paint1_linear" x1="45.3125" y1="679.688" x2="54.6875" y2="623.438" gradientUnits="userSpaceOnUse">
<stop stop-color="#E9A254"/>
<stop offset="1" stop-color="#F4BB79"/>
</linearGradient>
<linearGradient id="paint2_linear" x1="561.875" y1="156.875" x2="561.875" y2="100.625" gradientUnits="userSpaceOnUse">
<stop stop-color="#E9A254"/>
<stop offset="1" stop-color="#F4BB79"/>
</linearGradient>
<linearGradient id="paint3_linear" x1="128.75" y1="590" x2="128.75" y2="533.75" gradientUnits="userSpaceOnUse">
<stop stop-color="#E9A254"/>
<stop offset="1" stop-color="#F4BB79"/>
</linearGradient>
<linearGradient id="paint4_linear" x1="561.875" y1="590" x2="561.875" y2="533.75" gradientUnits="userSpaceOnUse">
<stop stop-color="#E9A254"/>
<stop offset="1" stop-color="#F4BB79"/>
</linearGradient>
<linearGradient id="paint5_linear" x1="128.75" y1="156.875" x2="128.75" y2="100.625" gradientUnits="userSpaceOnUse">
<stop stop-color="#E9A254"/>
<stop offset="1" stop-color="#F4BB79"/>
</linearGradient>
<linearGradient id="paint6_linear" x1="651.562" y1="373.437" x2="651.562" y2="317.188" gradientUnits="userSpaceOnUse">
<stop stop-color="#E9A254"/>
<stop offset="1" stop-color="#F4BB79"/>
</linearGradient>
<linearGradient id="paint7_linear" x1="39.0625" y1="373.437" x2="39.0625" y2="317.188" gradientUnits="userSpaceOnUse">
<stop stop-color="#E9A254"/>
<stop offset="1" stop-color="#F4BB79"/>
</linearGradient>
<linearGradient id="paint8_linear" x1="50" y1="75" x2="50" y2="25" gradientUnits="userSpaceOnUse">
<stop stop-color="#474F72"/>
<stop offset="1" stop-color="#878C9F"/>
</linearGradient>
<linearGradient id="paint9_linear" x1="38.6758" y1="161.875" x2="38.6758" y2="152.724" gradientUnits="userSpaceOnUse">
<stop stop-color="#474F72"/>
<stop offset="1" stop-color="#878C9F"/>
</linearGradient>
<linearGradient id="paint10_linear" x1="34.375" y1="1346.87" x2="65.625" y2="721.875" gradientUnits="userSpaceOnUse">
<stop stop-color="#E9A254"/>
<stop offset="1" stop-color="#F4BB79"/>
</linearGradient>
<linearGradient id="paint11_linear" x1="34.375" y1="1346.87" x2="65.625" y2="721.875" gradientUnits="userSpaceOnUse">
<stop stop-color="#E9A254"/>
<stop offset="1" stop-color="#F4BB79"/>
</linearGradient>
</defs>
</svg>
