<svg width="80" height="80" viewBox="0 0 80 80" fill="none" xmlns="http://www.w3.org/2000/svg">
<g clip-path="url(#clip0)">
<path d="M79.375 3.75L69.375 68.75L0.625 45.625L79.375 3.75Z" fill="url(#paint0_linear)"/>
<path d="M69.8625 65.575L69.375 68.75L0.625 45.625L4.475 43.5813C70.5813 65.8063 16.6437 47.6688 69.8625 65.575Z" fill="#C7CDD8"/>
<path d="M79.375 3.75L37.4062 57.9938L33.125 76.25L25.6 54.025L79.375 3.75Z" fill="url(#paint1_linear)"/>
<path d="M47.95 61.5438L33.125 76.25L37.4062 57.9938L47.95 61.5438Z" fill="#8288A1"/>
<path d="M80 3.68756C79.9841 3.52501 79.9052 3.37513 79.7802 3.27001C79.6553 3.16488 79.4941 3.11285 79.3312 3.12506C79.1 3.12506 82.7687 1.25006 0.324968 45.0688C0.20453 45.1202 0.103269 45.2081 0.035478 45.3201C-0.0323128 45.4321 -0.0632092 45.5626 -0.05285 45.6931C-0.0424907 45.8237 0.00860102 45.9476 0.0932131 46.0476C0.177825 46.1475 0.291684 46.2183 0.418718 46.2501L25.0937 54.5251C29.25 66.7876 32.5937 76.5938 32.5937 76.5251C32.6435 76.6326 32.7228 76.7237 32.8224 76.7879C32.922 76.8521 33.0377 76.8867 33.1562 76.8875C33.5625 76.8875 32.775 77.5125 48.1562 62.2688C70.8562 69.9063 69.3562 69.5313 69.7437 69.2938C70.1312 69.0563 80 3.75006 80 3.68756ZM75.4125 6.57506L25.4125 53.3001L2.23122 45.4938L75.4125 6.57506ZM74.0125 9.63131C35.1375 59.8876 36.875 57.6063 36.8 57.825C36.725 58.0438 37.0687 56.6376 33.0125 73.9313L26.3312 54.2126L74.0125 9.63131ZM34.2562 74.2313L37.8687 58.8188L46.7687 61.8188L34.2562 74.2313ZM68.8625 67.9063L38.4625 57.6751L78.3687 6.09381L68.8625 67.9063Z" fill="#47566A"/>
</g>
<defs>
<linearGradient id="paint0_linear" x1="40" y1="68.75" x2="40" y2="3.75" gradientUnits="userSpaceOnUse">
<stop stop-color="#DDE1E8"/>
<stop offset="1" stop-color="#F3F4F5"/>
</linearGradient>
<linearGradient id="paint1_linear" x1="52.4875" y1="76.25" x2="52.4875" y2="3.75" gradientUnits="userSpaceOnUse">
<stop stop-color="#949AAF"/>
<stop offset="1" stop-color="#C6CCDA"/>
</linearGradient>
<clipPath id="clip0">
<rect width="80" height="80" fill="white"/>
</clipPath>
</defs>
</svg>
