<svg width="88" height="100" viewBox="0 0 88 100" fill="none" xmlns="http://www.w3.org/2000/svg">
<path d="M43.5484 100C30.971 96.2745 19.9352 88.5827 12.087 78.072C4.23883 67.5612 -0.000988771 54.7949 1.72965e-07 41.6774V9.67742L43.5484 0L87.0968 9.67742V41.6774C87.0952 54.7943 82.8543 67.5594 75.0066 78.0696C67.1588 88.5798 56.1244 96.2722 43.5484 100V100Z" fill="url(#paint0_linear)"/>
<path d="M81.1129 67.9678C77.4435 75.6397 72.2037 82.4554 65.7326 87.9734C59.2616 93.4915 51.7037 97.5888 43.5484 100C35.3931 97.5888 27.8352 93.4915 21.3642 87.9734C14.8931 82.4554 9.65324 75.6397 5.98387 67.9678C14.7135 81.364 28.096 91.0518 43.5484 95.1613C59.0008 91.0518 72.3833 81.364 81.1129 67.9678V67.9678Z" fill="#F6B756"/>
<path d="M43.5484 89.8226C33.6583 86.222 25.1093 79.6767 19.0532 71.0684C12.9972 62.4601 9.72494 52.2025 9.67742 41.6774V17.4839L43.5484 9.91937L77.4194 17.4355V41.629C77.3817 52.1624 74.1141 62.4307 68.0573 71.0485C62.0006 79.6664 53.4462 86.2191 43.5484 89.8226V89.8226Z" fill="url(#paint1_linear)"/>
<path d="M77.4194 17.4355V22.2742L43.5484 14.7581L9.67742 22.2742V17.4355L43.5484 9.91937L77.4194 17.4355Z" fill="#F2A961"/>
<defs>
<linearGradient id="paint0_linear" x1="43.5484" y1="100" x2="43.5484" y2="0" gradientUnits="userSpaceOnUse">
<stop stop-color="#FBCC88"/>
<stop offset="1" stop-color="#FFE5C3"/>
</linearGradient>
<linearGradient id="paint1_linear" x1="43.5484" y1="89.8226" x2="43.5484" y2="9.91937" gradientUnits="userSpaceOnUse">
<stop stop-color="#E9A254"/>
<stop offset="1" stop-color="#F4BB79"/>
</linearGradient>
</defs>
</svg>
