<svg width="108" height="105" viewBox="0 0 108 105" fill="none" xmlns="http://www.w3.org/2000/svg">
<path d="M12.5 23.4375C11.2568 23.4375 10.0645 23.9314 9.18544 24.8104C8.30636 25.6895 7.8125 26.8818 7.8125 28.125V85.9375H92.1875V28.125C92.1875 26.8818 91.6936 25.6895 90.8146 24.8104C89.9355 23.9314 88.7432 23.4375 87.5 23.4375H12.5Z" fill="url(#paint0_linear)"/>
<path d="M85.9375 29.6875V79.6875H14.0625V29.6875H85.9375Z" fill="url(#paint1_linear)"/>
<path d="M85.9375 29.6875V32.8125H14.0625V29.6875H85.9375Z" fill="#AAE0E5"/>
<path d="M85.9375 76.5625V79.6875H14.0625V76.5625H85.9375Z" fill="#77CACB"/>
<path d="M4.6875 85.9375H95.3125C96.1413 85.9375 96.9362 86.2667 97.5222 86.8528C98.1083 87.4388 98.4375 88.2337 98.4375 89.0625V92.1875C98.4375 93.8451 97.779 95.4348 96.6069 96.6069C95.4348 97.779 93.8451 98.4375 92.1875 98.4375H7.8125C6.1549 98.4375 4.56519 97.779 3.39308 96.6069C2.22098 95.4348 1.5625 93.8451 1.5625 92.1875V89.0625C1.5625 88.2337 1.89174 87.4388 2.47779 86.8528C3.06384 86.2667 3.8587 85.9375 4.6875 85.9375Z" fill="url(#paint2_linear)"/>
<path d="M98.4375 89.0625V92.1875C98.4375 93.8451 97.779 95.4348 96.6069 96.6069C95.4348 97.779 93.8451 98.4375 92.1875 98.4375H7.8125C6.1549 98.4375 4.56519 97.779 3.39308 96.6069C2.22098 95.4348 1.5625 93.8451 1.5625 92.1875V89.0625C1.5625 90.7201 2.22098 92.3098 3.39308 93.4819C4.56519 94.654 6.1549 95.3125 7.8125 95.3125H92.1875C93.8451 95.3125 95.4348 94.654 96.6069 93.4819C97.779 92.3098 98.4375 90.7201 98.4375 89.0625Z" fill="#8288A1"/>
<path d="M62.5 90.625H37.5L34.375 85.9375H65.625L62.5 90.625Z" fill="#D7DBE2"/>
<path d="M92.1875 82.8125H7.8125V85.9375H92.1875V82.8125Z" fill="#8288A1"/>
<path d="M93.75 9.375V12.5H78.125V9.375C78.125 7.303 78.9481 5.31586 80.4132 3.85073C81.8784 2.3856 83.8655 1.5625 85.9375 1.5625C88.0095 1.5625 89.9966 2.3856 91.4618 3.85073C92.9269 5.31586 93.75 7.303 93.75 9.375Z" fill="url(#paint3_linear)"/>
<path d="M85.9375 1.5625C83.8655 1.5625 81.8784 2.3856 80.4132 3.85073C78.9481 5.31586 78.125 7.303 78.125 9.375V79.6875H21.875V9.375C21.875 7.303 22.6981 5.31586 24.1632 3.85073C25.6284 2.3856 27.6155 1.5625 29.6875 1.5625H85.9375Z" fill="url(#paint4_linear)"/>
<path d="M34.375 18.75C36.9638 18.75 39.0625 16.6513 39.0625 14.0625C39.0625 11.4737 36.9638 9.375 34.375 9.375C31.7862 9.375 29.6875 11.4737 29.6875 14.0625C29.6875 16.6513 31.7862 18.75 34.375 18.75Z" fill="url(#paint5_linear)"/>
<path d="M57.8125 15.625H45.3125C44.8981 15.625 44.5007 15.4604 44.2076 15.1674C43.9146 14.8743 43.75 14.4769 43.75 14.0625C43.75 13.6481 43.9146 13.2507 44.2076 12.9576C44.5007 12.6646 44.8981 12.5 45.3125 12.5H57.8125C58.2269 12.5 58.6243 12.6646 58.9174 12.9576C59.2104 13.2507 59.375 13.6481 59.375 14.0625C59.375 14.4769 59.2104 14.8743 58.9174 15.1674C58.6243 15.4604 58.2269 15.625 57.8125 15.625Z" fill="#9CA0AD"/>
<path d="M70.3125 29.6875H37.5C37.0856 29.6875 36.6882 29.5229 36.3951 29.2299C36.1021 28.9368 35.9375 28.5394 35.9375 28.125C35.9375 27.7106 36.1021 27.3132 36.3951 27.0201C36.6882 26.7271 37.0856 26.5625 37.5 26.5625H70.3125C70.7269 26.5625 71.1243 26.7271 71.4174 27.0201C71.7104 27.3132 71.875 27.7106 71.875 28.125C71.875 28.5394 71.7104 28.9368 71.4174 29.2299C71.1243 29.5229 70.7269 29.6875 70.3125 29.6875Z" fill="#9CA0AD"/>
<path d="M70.3125 37.5H29.6875C29.2731 37.5 28.8757 37.3354 28.5826 37.0424C28.2896 36.7493 28.125 36.3519 28.125 35.9375C28.125 35.5231 28.2896 35.1257 28.5826 34.8326C28.8757 34.5396 29.2731 34.375 29.6875 34.375H70.3125C70.7269 34.375 71.1243 34.5396 71.4174 34.8326C71.7104 35.1257 71.875 35.5231 71.875 35.9375C71.875 36.3519 71.7104 36.7493 71.4174 37.0424C71.1243 37.3354 70.7269 37.5 70.3125 37.5Z" fill="#9CA0AD"/>
<path d="M70.3125 45.3125H29.6875C29.2731 45.3125 28.8757 45.1479 28.5826 44.8549C28.2896 44.5618 28.125 44.1644 28.125 43.75C28.125 43.3356 28.2896 42.9382 28.5826 42.6451C28.8757 42.3521 29.2731 42.1875 29.6875 42.1875H70.3125C70.7269 42.1875 71.1243 42.3521 71.4174 42.6451C71.7104 42.9382 71.875 43.3356 71.875 43.75C71.875 44.1644 71.7104 44.5618 71.4174 44.8549C71.1243 45.1479 70.7269 45.3125 70.3125 45.3125Z" fill="#9CA0AD"/>
<path d="M60.9375 53.125H29.6875C29.2731 53.125 28.8757 52.9604 28.5826 52.6674C28.2896 52.3743 28.125 51.9769 28.125 51.5625C28.125 51.1481 28.2896 50.7507 28.5826 50.4576C28.8757 50.1646 29.2731 50 29.6875 50H60.9375C61.3519 50 61.7493 50.1646 62.0424 50.4576C62.3354 50.7507 62.5 51.1481 62.5 51.5625C62.5 51.9769 62.3354 52.3743 62.0424 52.6674C61.7493 52.9604 61.3519 53.125 60.9375 53.125Z" fill="#9CA0AD"/>
<path d="M41.0312 64.9375L35.5625 71.3281C35.2931 71.6431 34.9097 71.8381 34.4965 71.8704C34.0834 71.9026 33.6743 71.7694 33.3594 71.5C33.0444 71.2307 32.8494 70.8472 32.8171 70.4341C32.7849 70.0209 32.9181 69.6118 33.1875 69.2969L42.5625 58.3594C42.7913 58.0927 43.1034 57.9109 43.4482 57.8434C43.7931 57.7759 44.1506 57.8267 44.4631 57.9874C44.7756 58.1482 45.0248 58.4096 45.1704 58.7294C45.316 59.0492 45.3495 59.4088 45.2656 59.75C44.5048 62.5887 44.0542 65.5016 43.9219 68.4375C45.7182 67.3183 47.3847 66.0029 48.8906 64.5156C49.0657 64.3411 49.2797 64.2106 49.5151 64.1348C49.7504 64.059 50.0004 64.0402 50.2444 64.0799C50.4885 64.1195 50.7196 64.2165 50.9189 64.3629C51.1181 64.5093 51.2798 64.7009 51.3906 64.9219L51.9844 66.1094L53.5469 64.5469C53.7617 64.3175 54.0407 64.1581 54.3474 64.0897C54.6542 64.0213 54.9744 64.047 55.2664 64.1634C55.5583 64.2799 55.8083 64.4816 55.9838 64.7424C56.1593 65.0031 56.2521 65.3107 56.25 65.625C56.25 65.625 56.3437 68.75 57.8125 68.75H68.75C69.1644 68.75 69.5618 68.9146 69.8548 69.2077C70.1479 69.5007 70.3125 69.8981 70.3125 70.3125C70.3125 70.7269 70.1479 71.1244 69.8548 71.4174C69.5618 71.7104 69.1644 71.875 68.75 71.875H57.8125C56.8854 71.8613 55.9872 71.5503 55.2502 70.9877C54.5132 70.4251 53.9764 69.6407 53.7187 68.75C52.4844 69.9844 52.1562 70.3125 51.3125 70.3125C50.4687 70.3125 50.1719 69.5 49.5312 68.1875C42.9375 73.8594 39.8906 73.4375 41.0312 64.9375Z" fill="#5B8DC9"/>
<path d="M103.531 79.7606L106.917 77.7919L102.323 69.8381L98.9306 71.8069C96.8775 69.8088 94.3543 68.3599 91.5938 67.5938V63.6562H82.4063V67.5938C79.6431 68.3675 77.1196 69.8255 75.0694 71.8331L71.6766 69.8644L67.0828 77.8181L70.4691 79.7869C69.7557 82.5681 69.7557 85.4844 70.4691 88.2656L67.0828 90.2344L71.6766 98.1881L75.0694 96.2194C77.1254 98.2079 79.6484 99.6477 82.4063 100.406V104.344H91.5938V100.406C94.357 99.6325 96.8804 98.1745 98.9306 96.1669L102.323 98.1356L106.917 90.1819L103.531 88.2131C104.24 85.4402 104.24 82.5335 103.531 79.7606V79.7606Z" fill="url(#paint6_linear)"/>
<path d="M103.531 88.2394L106.917 90.2081L102.323 98.1619L98.9306 96.1931C96.8775 98.1912 94.3543 99.6401 91.5938 100.406V104.344H82.4063V100.406C79.6431 99.6326 77.1196 98.1745 75.0694 96.1669L71.6766 98.1356L67.0828 90.1819L70.4691 88.2131C70.0342 86.4991 69.8638 84.7287 69.9638 82.9631C70.1298 87.3695 71.9952 91.5405 75.169 94.6017C78.3428 97.6629 82.5784 99.3765 86.9879 99.3833C91.3974 99.39 95.6383 97.6895 98.8215 94.6381C102.005 91.5867 103.883 87.4215 104.063 83.0156C104.154 84.7738 103.975 86.5356 103.531 88.2394V88.2394Z" fill="#42455E"/>
<path d="M87 96.4688C93.8863 96.4688 99.4688 90.8863 99.4688 84C99.4688 77.1137 93.8863 71.5312 87 71.5312C80.1137 71.5312 74.5312 77.1137 74.5312 84C74.5312 90.8863 80.1137 96.4688 87 96.4688Z" fill="url(#paint7_linear)"/>
<path d="M99.4688 84.6562C99.4688 81.3493 98.1551 78.1779 95.8167 75.8395C93.4784 73.5012 90.3069 72.1875 87 72.1875C83.6931 72.1875 80.5216 73.5012 78.1833 75.8395C75.8449 78.1779 74.5312 81.3493 74.5312 84.6562C74.5312 81.3493 75.8449 78.1779 78.1833 75.8395C80.5216 73.5012 83.6931 72.1875 87 72.1875C90.3069 72.1875 93.4784 73.5012 95.8167 75.8395C98.1551 78.1779 99.4688 81.3493 99.4688 84.6562V84.6562Z" fill="#ADB3C4"/>
<path d="M86.3438 74.8125V73.5C86.3438 73.326 86.4129 73.159 86.536 73.036C86.659 72.9129 86.826 72.8438 87 72.8438C87.174 72.8438 87.341 72.9129 87.464 73.036C87.5871 73.159 87.6562 73.326 87.6562 73.5V74.8125C87.6562 74.9865 87.5871 75.1535 87.464 75.2765C87.341 75.3996 87.174 75.4688 87 75.4688C86.826 75.4688 86.659 75.3996 86.536 75.2765C86.4129 75.1535 86.3438 74.9865 86.3438 74.8125Z" fill="white"/>
<path d="M86.3438 94.5V93.1875C86.3438 93.0135 86.4129 92.8465 86.536 92.7235C86.659 92.6004 86.826 92.5312 87 92.5312C87.174 92.5312 87.341 92.6004 87.464 92.7235C87.5871 92.8465 87.6562 93.0135 87.6562 93.1875V94.5C87.6562 94.674 87.5871 94.841 87.464 94.964C87.341 95.0871 87.174 95.1562 87 95.1562C86.826 95.1562 86.659 95.0871 86.536 94.964C86.4129 94.841 86.3438 94.674 86.3438 94.5Z" fill="white"/>
<path d="M97.5 84.6562H96.1875C96.0135 84.6562 95.8465 84.5871 95.7235 84.464C95.6004 84.341 95.5312 84.174 95.5312 84C95.5312 83.826 95.6004 83.659 95.7235 83.536C95.8465 83.4129 96.0135 83.3438 96.1875 83.3438H97.5C97.674 83.3438 97.841 83.4129 97.964 83.536C98.0871 83.659 98.1563 83.826 98.1563 84C98.1563 84.174 98.0871 84.341 97.964 84.464C97.841 84.5871 97.674 84.6562 97.5 84.6562Z" fill="white"/>
<path d="M77.8125 84.6562H76.5C76.326 84.6562 76.159 84.5871 76.036 84.464C75.9129 84.341 75.8438 84.174 75.8438 84C75.8438 83.826 75.9129 83.659 76.036 83.536C76.159 83.4129 76.326 83.3438 76.5 83.3438H77.8125C77.9865 83.3438 78.1535 83.4129 78.2765 83.536C78.3996 83.659 78.4688 83.826 78.4688 84C78.4688 84.174 78.3996 84.341 78.2765 84.464C78.1535 84.5871 77.9865 84.6562 77.8125 84.6562Z" fill="white"/>
<path d="M82.3209 74.5762C82.408 74.7277 82.4313 74.9074 82.3857 75.0761C82.3402 75.2447 82.2295 75.3883 82.0781 75.4753C81.9267 75.5623 81.7469 75.5856 81.5783 75.5401C81.4097 75.4946 81.2661 75.3839 81.1791 75.2325C81.136 75.1575 81.1081 75.0748 81.097 74.989C81.0858 74.9033 81.0917 74.8162 81.1143 74.7327C81.1598 74.5641 81.2705 74.4204 81.4219 74.3334C81.5733 74.2464 81.7531 74.2231 81.9217 74.2686C82.0903 74.3142 82.2339 74.4248 82.3209 74.5762V74.5762Z" fill="white"/>
<path d="M92.8209 92.7675C92.908 92.9189 92.9313 93.0987 92.8857 93.2673C92.8402 93.4359 92.7296 93.5796 92.5781 93.6666C92.4267 93.7536 92.2469 93.7769 92.0783 93.7314C91.9097 93.6858 91.7661 93.5752 91.6791 93.4238C91.592 93.2723 91.5687 93.0926 91.6143 92.924C91.6598 92.7553 91.7705 92.6117 91.9219 92.5247C92.0733 92.4377 92.2531 92.4144 92.4217 92.4599C92.5903 92.5054 92.7339 92.6161 92.8209 92.7675V92.7675Z" fill="white"/>
<path d="M91.6791 74.5762C91.592 74.7277 91.5687 74.9074 91.6143 75.0761C91.6598 75.2447 91.7705 75.3883 91.9219 75.4753C92.0733 75.5623 92.2531 75.5856 92.4217 75.5401C92.5903 75.4946 92.7339 75.3839 92.8209 75.2325C92.864 75.1575 92.8919 75.0748 92.903 74.989C92.9142 74.9033 92.9083 74.8162 92.8857 74.7327C92.8632 74.6492 92.8244 74.571 92.7716 74.5025C92.7189 74.4339 92.6531 74.3765 92.5781 74.3334C92.5032 74.2903 92.4204 74.2624 92.3347 74.2513C92.2489 74.2402 92.1618 74.2461 92.0783 74.2686C91.9948 74.2912 91.9166 74.3299 91.8481 74.3827C91.7796 74.4355 91.7222 74.5013 91.6791 74.5762V74.5762Z" fill="white"/>
<path d="M81.1791 92.7675C81.092 92.9189 81.0687 93.0987 81.1143 93.2673C81.1598 93.4359 81.2705 93.5796 81.4219 93.6666C81.5733 93.7536 81.7531 93.7769 81.9217 93.7314C82.0903 93.6858 82.2339 93.5752 82.3209 93.4238C82.408 93.2723 82.4313 93.0926 82.3857 92.924C82.3402 92.7553 82.2296 92.6117 82.0781 92.5247C81.9267 92.4377 81.7469 92.4144 81.5783 92.4599C81.4097 92.5054 81.2661 92.6161 81.1791 92.7675V92.7675Z" fill="white"/>
<path d="M96.4238 79.3209C96.2723 79.4079 96.0926 79.4312 95.924 79.3857C95.7553 79.3401 95.6117 79.2295 95.5247 79.0781C95.4377 78.9266 95.4144 78.7469 95.4599 78.5782C95.5054 78.4096 95.6161 78.266 95.7675 78.179C95.9189 78.092 96.0987 78.0687 96.2673 78.1142C96.4359 78.1597 96.5796 78.2704 96.6666 78.4218C96.7536 78.5732 96.7769 78.753 96.7314 78.9216C96.6858 79.0902 96.5752 79.2339 96.4238 79.3209V79.3209Z" fill="white"/>
<path d="M78.2325 89.8209C78.0811 89.9079 77.9013 89.9312 77.7327 89.8857C77.5641 89.8401 77.4205 89.7295 77.3335 89.5781C77.2464 89.4266 77.2231 89.2469 77.2687 89.0782C77.3142 88.9096 77.4248 88.766 77.5763 88.679C77.6512 88.6359 77.734 88.608 77.8197 88.5969C77.9055 88.5858 77.9926 88.5917 78.0761 88.6142C78.1596 88.6368 78.2378 88.6755 78.3063 88.7283C78.3748 88.7811 78.4322 88.8468 78.4753 88.9218C78.5184 88.9968 78.5463 89.0795 78.5574 89.1653C78.5686 89.251 78.5627 89.3382 78.5401 89.4216C78.5176 89.5051 78.4788 89.5833 78.426 89.6519C78.3732 89.7204 78.3075 89.7778 78.2325 89.8209V89.8209Z" fill="white"/>
<path d="M96.4238 88.679C96.2723 88.592 96.0926 88.5687 95.924 88.6142C95.7553 88.6597 95.6117 88.7704 95.5247 88.9218C95.4377 89.0732 95.4144 89.253 95.4599 89.4216C95.5054 89.5902 95.6161 89.7339 95.7675 89.8209C95.9189 89.9079 96.0987 89.9312 96.2673 89.8857C96.4359 89.8401 96.5796 89.7295 96.6666 89.5781C96.7536 89.4266 96.7769 89.2469 96.7314 89.0782C96.6858 88.9096 96.5752 88.766 96.4238 88.679V88.679Z" fill="white"/>
<path d="M78.2325 78.179C78.0811 78.092 77.9013 78.0687 77.7327 78.1142C77.5641 78.1597 77.4205 78.2704 77.3335 78.4218C77.2464 78.5732 77.2231 78.753 77.2687 78.9216C77.3142 79.0902 77.4248 79.2339 77.5763 79.3209C77.7277 79.4079 77.9075 79.4312 78.0761 79.3857C78.2447 79.3401 78.3883 79.2295 78.4753 79.0781C78.5624 78.9266 78.5857 78.7469 78.5401 78.5782C78.4946 78.4096 78.3839 78.266 78.2325 78.179Z" fill="white"/>
<path d="M87 85.3125C86.7404 85.3125 86.4867 85.2355 86.2708 85.0913C86.055 84.9471 85.8867 84.7421 85.7874 84.5023C85.6881 84.2624 85.6621 83.9985 85.7127 83.7439C85.7634 83.4893 85.8884 83.2555 86.0719 83.0719C86.2555 82.8884 86.4893 82.7634 86.7439 82.7127C86.9985 82.6621 87.2624 82.6881 87.5023 82.7874C87.7421 82.8867 87.9471 83.055 88.0913 83.2708C88.2355 83.4867 88.3125 83.7404 88.3125 84C88.3125 84.3481 88.1742 84.6819 87.9281 84.9281C87.6819 85.1742 87.3481 85.3125 87 85.3125Z" fill="#CF4055"/>
<path d="M86.3438 85.9688V77.4375C86.3438 77.2635 86.4129 77.0965 86.536 76.9735C86.659 76.8504 86.826 76.7812 87 76.7812C87.174 76.7812 87.341 76.8504 87.464 76.9735C87.5871 77.0965 87.6562 77.2635 87.6562 77.4375V85.9688C87.6562 86.1428 87.5871 86.3097 87.464 86.4328C87.341 86.5559 87.174 86.625 87 86.625C86.826 86.625 86.659 86.5559 86.536 86.4328C86.4129 86.3097 86.3438 86.1428 86.3438 85.9688Z" fill="#CF4055"/>
<path d="M92.25 84.6562H85.0312C84.8572 84.6562 84.6903 84.5871 84.5672 84.464C84.4441 84.341 84.375 84.174 84.375 84C84.375 83.826 84.4441 83.659 84.5672 83.536C84.6903 83.4129 84.8572 83.3438 85.0312 83.3438H92.25C92.424 83.3438 92.591 83.4129 92.714 83.536C92.8371 83.659 92.9062 83.826 92.9062 84C92.9062 84.174 92.8371 84.341 92.714 84.464C92.591 84.5871 92.424 84.6562 92.25 84.6562Z" fill="#CF4055"/>
<defs>
<linearGradient id="paint0_linear" x1="50" y1="85.9375" x2="50" y2="23.4375" gradientUnits="userSpaceOnUse">
<stop stop-color="#A0A6BA"/>
<stop offset="1" stop-color="#C6CCDA"/>
</linearGradient>
<linearGradient id="paint1_linear" x1="50" y1="79.6875" x2="50" y2="29.6875" gradientUnits="userSpaceOnUse">
<stop stop-color="#9DD5DF"/>
<stop offset="1" stop-color="#C3E1F5"/>
</linearGradient>
<linearGradient id="paint2_linear" x1="3101.56" y1="873.438" x2="3101.56" y2="773.438" gradientUnits="userSpaceOnUse">
<stop stop-color="#A0A6BA"/>
<stop offset="1" stop-color="#C6CCDA"/>
</linearGradient>
<linearGradient id="paint3_linear" x1="859.375" y1="50.7812" x2="1015.62" y2="50.7812" gradientUnits="userSpaceOnUse">
<stop stop-color="#A0A6BA"/>
<stop offset="1" stop-color="#C6CCDA"/>
</linearGradient>
<linearGradient id="paint4_linear" x1="53.9062" y1="79.6875" x2="53.9062" y2="1.5625" gradientUnits="userSpaceOnUse">
<stop stop-color="#D4D8E1"/>
<stop offset="1" stop-color="#F3F4F5"/>
</linearGradient>
<linearGradient id="paint5_linear" x1="34.375" y1="18.75" x2="34.375" y2="9.375" gradientUnits="userSpaceOnUse">
<stop stop-color="#FBCC88"/>
<stop offset="1" stop-color="#FFE5C3"/>
</linearGradient>
<linearGradient id="paint6_linear" x1="87" y1="104.344" x2="87" y2="63.6562" gradientUnits="userSpaceOnUse">
<stop stop-color="#474F72"/>
<stop offset="1" stop-color="#878C9F"/>
</linearGradient>
<linearGradient id="paint7_linear" x1="87" y1="96.4688" x2="87" y2="71.5312" gradientUnits="userSpaceOnUse">
<stop stop-color="#A0A6BA"/>
<stop offset="1" stop-color="#C6CCDA"/>
</linearGradient>
</defs>
</svg>
